<?xml version="1.0" encoding="utf-8"?>
<!-- Generator: Adobe Illustrator 24.2.0, SVG Export Plug-In . SVG Version: 6.00 Build 0)  -->
<svg version="1.1" id="Layer_1" xmlns="http://www.w3.org/2000/svg" xmlns:xlink="http://www.w3.org/1999/xlink" x="0px" y="0px"
	 viewBox="0 0 260.8 82.5" style="enable-background:new 0 0 260.8 82.5;" xml:space="preserve">
<style type="text/css">
	.st0{opacity:0.88;fill:#002E5A;enable-background:new    ;}
	.st1{fill:#002E5A;}
	.st2{fill:#279AD6;}
	.st3{fill:#183059;}
	.st4{fill:#2899D5;}
</style>
<g>
	<g>
		<g>
			<path class="st0" d="M73.4,8.2c-0.1-0.3,0-0.6,0.4-0.6h0.9c0.2,0,0.3,0.1,0.4,0.3l5.7,12.8h0.1l5.7-12.8c0-0.1,0.2-0.3,0.4-0.3
				h0.9c0.3,0,0.5,0.3,0.4,0.6l-6.9,15.3c-0.1,0.1-0.2,0.3-0.4,0.3h-0.2c-0.2,0-0.3-0.1-0.4-0.3L73.4,8.2z"/>
			<path class="st0" d="M88.3,22.9l6.9-15.3c0.1-0.1,0.2-0.3,0.4-0.3h0.2c0.2,0,0.3,0.1,0.4,0.3l6.9,15.3c0.1,0.3,0,0.6-0.4,0.6
				h-0.9c-0.2,0-0.3-0.1-0.4-0.3l-1.7-3.8h-8.1L90,23.3c0,0.1-0.2,0.3-0.4,0.3h-0.9C88.3,23.5,88.1,23.2,88.3,22.9z M99.1,18.1
				c-1.1-2.5-2.2-5-3.3-7.5h-0.2l-3.3,7.5H99.1z"/>
			<path class="st0" d="M106.3,7.8c0-0.2,0.2-0.4,0.4-0.4h0.6l10.3,12.8l0,0V8c0-0.2,0.2-0.4,0.4-0.4h0.8c0.2,0,0.4,0.2,0.4,0.4
				v15.3c0,0.2-0.2,0.4-0.4,0.4h-0.4l-10.5-13.1l0,0V23c0,0.2-0.2,0.4-0.4,0.4h-0.8c-0.2,0-0.4-0.2-0.4-0.4V7.8z"/>
			<path class="st0" d="M130.3,8c0-0.2,0.2-0.4,0.4-0.4h5.1c4.4,0,8,3.6,8,8s-3.6,8-8,8h-5.1c-0.2,0-0.4-0.2-0.4-0.4V8z M135.5,22
				c3.7,0,6.4-2.7,6.4-6.4s-2.7-6.4-6.4-6.4h-3.4V22H135.5z"/>
			<path class="st0" d="M148,8c0-0.2,0.2-0.4,0.4-0.4h9c0.3,0,0.4,0.2,0.4,0.4v0.7c0,0.2-0.2,0.4-0.4,0.4h-7.7v5.6h6.5
				c0.2,0,0.4,0.2,0.4,0.4v0.7c0,0.3-0.2,0.4-0.4,0.4h-6.5V22h7.7c0.3,0,0.4,0.2,0.4,0.4v0.7c0,0.2-0.2,0.4-0.4,0.4h-9
				c-0.3,0-0.4-0.2-0.4-0.4V8z"/>
			<path class="st0" d="M162.2,8c0-0.2,0.2-0.4,0.4-0.4h5.9c2.7,0,5,2.1,5,4.9c0,2.1-1.4,3.9-3.4,4.6l3.1,5.8c0.2,0.3,0,0.7-0.4,0.7
				h-1.2c-0.2,0-0.3-0.1-0.4-0.2l-3-6H164v5.8c0,0.2-0.2,0.4-0.4,0.4h-0.9c-0.3,0-0.4-0.2-0.4-0.4V8H162.2z M168.4,15.8
				c1.8,0,3.3-1.5,3.3-3.3c0-1.7-1.5-3.2-3.3-3.2H164v6.5H168.4z"/>
			<path class="st1" d="M181.9,22.7l6.8-12.3v-0.1H183c-0.2,0-0.4-0.2-0.4-0.4V8c0-0.2,0.2-0.4,0.4-0.4h9.5c0.2,0,0.4,0.2,0.4,0.4
				v0.3l-6.7,12.4l0,0h5.8c0.3,0,0.4,0.2,0.4,0.4V23c0,0.2-0.2,0.4-0.4,0.4h-9.7c-0.2,0-0.4-0.2-0.4-0.4L181.9,22.7L181.9,22.7z"/>
			<path class="st1" d="M196.4,8c0-0.2,0.2-0.4,0.4-0.4h9.3c0.3,0,0.4,0.2,0.4,0.4v1.9c0,0.2-0.2,0.4-0.4,0.4h-6.7V14h5.6
				c0.2,0,0.4,0.2,0.4,0.4v1.9c0,0.3-0.2,0.4-0.4,0.4h-5.6v4h6.7c0.3,0,0.4,0.2,0.4,0.4V23c0,0.2-0.2,0.4-0.4,0.4h-9.3
				c-0.3,0-0.4-0.2-0.4-0.4V8z"/>
			<path class="st1" d="M210.5,8c0-0.2,0.2-0.4,0.4-0.4h9.3c0.3,0,0.4,0.2,0.4,0.4v1.9c0,0.2-0.2,0.4-0.4,0.4h-6.7V14h5.6
				c0.2,0,0.4,0.2,0.4,0.4v1.9c0,0.3-0.2,0.4-0.4,0.4h-5.6v4h6.7c0.3,0,0.4,0.2,0.4,0.4V23c0,0.2-0.2,0.4-0.4,0.4h-9.3
				c-0.3,0-0.4-0.2-0.4-0.4V8z"/>
			<path class="st1" d="M224.3,8c0-0.2,0.2-0.4,0.4-0.4h2.2c0.3,0,0.4,0.2,0.4,0.4v9.3c0,1.9,1.3,3.5,3.3,3.5s3.3-1.5,3.3-3.4V8
				c0-0.2,0.2-0.4,0.4-0.4h2.2c0.2,0,0.4,0.2,0.4,0.4v9.5c0,3.5-2.8,6.3-6.4,6.3c-3.6,0-6.3-2.8-6.3-6.3V8H224.3z"/>
			<path class="st1" d="M240.2,8.1c-0.1-0.3,0.1-0.5,0.4-0.5h2.1c0.2,0,0.4,0.2,0.4,0.3l2.4,9.1h0.1l3.6-9.4c0-0.1,0.2-0.3,0.4-0.3
				h0.4c0.2,0,0.3,0.1,0.4,0.3L254,17h0.1l2.3-9.1c0-0.2,0.2-0.3,0.4-0.3h2.1c0.3,0,0.5,0.2,0.4,0.5L255,23.4c0,0.2-0.2,0.3-0.4,0.3
				h-0.4c-0.2,0-0.3-0.1-0.4-0.3l-4.1-10.3h-0.1l-4,10.3c-0.1,0.1-0.2,0.3-0.4,0.3h-0.4c-0.2,0-0.4-0.1-0.4-0.3L240.2,8.1z"/>
		</g>
	</g>
	<polygon class="st1" points="18.3,16.6 18.3,16.6 50.6,29.9 50.6,7.4 25.5,1.8 0.5,7.2 0.5,23.9 	"/>
	<polygon class="st2" points="18.3,25.8 0.5,33.2 0.5,46.6 27.8,51.9 50.6,46.7 50.6,39.1 	"/>
	<g>
		<g>
			<path class="st1" d="M13,58.6c-0.1,0.1-0.2,0.1-0.2,0.2c-0.1,0.1-0.2,0.1-0.2,0.1H9.9c-0.1,0-0.1,0-0.2,0.1H9.6
				c-0.2,0-0.3,0-0.5,0s-0.3,0-0.4,0c-0.2,0.1-0.4,0.1-0.6,0.1c-0.2,0-0.5,0.1-0.7,0.1l-0.1,0.1c-0.2,0-0.4,0-0.6,0
				s-0.4,0.1-0.6,0.1l0,0l0,0c-0.1,0-0.2,0-0.3,0s-0.2,0-0.3,0c-0.1,0-0.1,0.1-0.2,0.1l-0.1,0.1c-0.1,0.3-0.2,0.5-0.3,0.8
				c-0.1,0.3-0.2,0.6-0.2,0.8c-0.1,0.3-0.2,0.7-0.3,1c-0.1,0.3-0.2,0.7-0.4,1l0.1,0.1c0.1-0.1,0.2-0.1,0.3-0.1c0.1,0,0.1,0,0.1,0
				s0,0,0,0.1l0.1-0.1h0.1h0.1c0,0,0.2,0,0.6-0.1s0.7-0.2,1.2-0.3C6.7,63,7.1,63,7.5,62.9s0.6-0.1,0.6-0.1c0.1,0,0.1,0,0.1,0l0,0
				l1.3-0.3l-0.1,0.1c0.1,0,0.1,0.1,0.1,0.1c0,0.1,0,0.1,0,0.2s0,0.1-0.1,0.1l-0.1,0.1v0.1c0,0,0,0,0,0.1c-0.1,0-0.3,0.1-0.4,0.1
				c-0.1,0.1-0.2,0.1-0.4,0.1c0,0,0,0.1-0.1,0.1s0,0.1,0.1,0.1c-0.1,0-0.3,0-0.5,0.1h0.1h0.1L5.3,65c-0.1,0-0.3,0-0.5,0.1
				s-0.4,0.2-0.6,0.2c-0.2,0.1-0.4,0.1-0.6,0.1c-0.2,0-0.4,0-0.4,0c-0.1,0-0.1,0,0,0l0,0c-0.1,0-0.1,0.1-0.1,0.2S3,65.9,3,66
				c0,0.2-0.1,0.3-0.1,0.5s-0.1,0.3-0.1,0.4s-0.1,0.3-0.1,0.5S2.6,67.8,2.6,68s0,0.4-0.1,0.5c0,0.1,0,0.2,0,0.3c0,0.1,0,0.1,0,0.1
				s0,0,0,0.1s0,0.2,0,0.2c0,0.1,0.1,0.2,0.2,0.4c0.1,0,0.1,0,0.1,0h0.1H3c0,0,0,0,0.1,0s0.1,0,0.2,0.1C3.5,70,3.6,70,3.6,70
				c0.1,0,0.1,0,0.2,0c0.1,0,0.1,0,0.2,0c0,0,0.1,0,0.2-0.1c0.1,0,0.2-0.1,0.3-0.1c0.2-0.1,0.3-0.1,0.5-0.2s0.4-0.2,0.6-0.3
				C5.7,69.2,5.9,69.1,6,69s0.3-0.2,0.4-0.2s0.1,0,0.1,0s0,0,0.1,0c0,0.1,0,0.2,0,0.2c0,0.1,0,0.1,0.1,0.2c0,0-0.1,0.1-0.1,0.2
				s-0.1,0.2-0.2,0.3l0,0h0.1c-0.1,0-0.2,0.1-0.3,0.3C6.1,70.2,6,70.3,6,70.3l-0.1,0.1c0,0.1-0.1,0.1-0.2,0.2s-0.2,0.2-0.4,0.2
				c0,0.2-0.1,0.3-0.3,0.4c-0.1,0.1-0.3,0.1-0.4,0.2c-0.1,0-0.2,0.1-0.2,0.1H3.7c-0.1,0-0.1,0-0.1,0s0,0-0.1,0c-0.2,0-0.3,0-0.5-0.1
				s-0.4-0.2-0.5-0.3c-0.4-0.3-0.7-0.5-0.9-0.8s-0.4-0.5-0.4-0.8c0-0.1-0.1-0.2-0.1-0.3c0-0.1,0-0.3-0.1-0.4c0-0.1,0-0.2-0.1-0.3
				c0-0.1,0-0.2,0-0.2V67C1,66.6,1,66.6,1,66.6c0.1-0.4,0.1-0.7,0.2-1s0.1-0.5,0.2-0.7s0.1-0.4,0.1-0.6s0-0.3-0.1-0.4h0.1
				c0.1,0,0.1-0.1,0.1-0.1c0.2-0.5,0.3-1,0.5-1.5s0.3-1,0.5-1.5c0-0.1,0.1-0.2,0.1-0.3C2.9,60.2,3,60.1,3,60.1S2.9,60,2.8,59.9
				c-0.1-0.1-0.2-0.1-0.3-0.2c0-0.1,0-0.1-0.1-0.2s-0.1-0.2-0.2-0.3c0-0.1-0.1-0.2-0.1-0.4c0-0.1-0.1-0.3-0.1-0.4v-0.1l0,0l0.1-0.1
				c0.1,0,0.1,0,0,0l0,0c0.1,0,0.1,0,0.1,0s0,0,0-0.1C2.6,58,2.8,58,3.1,57.9s0.6-0.2,0.9-0.2c0.1-0.2,0.2-0.3,0.3-0.4
				c0-0.1,0.1-0.2,0.1-0.2C4.4,57,4.5,57,4.5,57c0.1,0,0.2,0,0.3,0c0.1,0,0.1,0,0.1,0C5,57,5,57,5.1,57c0,0.1,0.1,0.2,0.2,0.2
				c0.1,0.1,0.2,0.1,0.3,0.2c0,0,0.1,0,0,0c0,0,0,0,0.1,0c0,0,0.1,0,0.2,0s0.2,0,0.3,0c0.1,0,0.3,0,0.4-0.1c0.1,0,0.3,0,0.4,0
				c0.3,0,0.6,0,1,0c0.4,0,0.7,0,1,0s0.6,0,0.9,0c0.2,0,0.4,0,0.4,0s0.1,0,0.2,0c0.1,0,0.3,0,0.4,0.1c0.2,0,0.3,0.1,0.5,0.1
				s0.3,0.1,0.4,0.1c0.1,0,0.3,0.1,0.4,0.1c0.2,0.1,0.3,0.1,0.5,0.3c0.1,0.1,0.2,0.2,0.1,0.2C12.8,58.4,12.9,58.5,13,58.6z"/>
			<path class="st1" d="M13.8,69.4c-0.1,0-0.2,0.1-0.3,0.1c-0.1,0.1-0.1,0.1-0.2,0.1c0,0.1,0.1,0.2,0.2,0.2c0,0.1-0.1,0.1-0.1,0.2
				s-0.1,0.2-0.1,0.3c-0.2,0-0.3,0-0.4,0.2c-0.1,0.2-0.1,0.3-0.1,0.5c-0.1,0-0.2,0.1-0.4,0.1c-0.1,0-0.3,0-0.4,0c-0.1,0-0.1,0,0,0.1
				h0.1c-0.1,0-0.2,0-0.4,0.1c-0.1,0.1-0.3,0.1-0.4,0.1v0.1c0,0,0,0-0.1,0s-0.1,0-0.2-0.1c-0.1,0-0.2-0.1-0.3-0.1s-0.2,0-0.2,0
				c-0.1,0-0.1,0.1-0.1,0.2l-0.2-0.3c-0.3-0.1-0.5-0.2-0.6-0.3c-0.1-0.1-0.3-0.3-0.6-0.6c-0.1-0.1-0.2-0.1-0.2-0.1l-0.1-0.1
				c0-0.1-0.1-0.2-0.1-0.3c0-0.2-0.1-0.4-0.2-0.9c-0.1-0.4,0-0.7,0-0.9c0.1-0.2,0.1-0.4,0.1-0.6s0.1-0.5,0.3-0.8
				c0.1-0.3,0.3-0.7,0.4-1c0.1-0.2,0.2-0.3,0.3-0.6c0.1-0.2,0.2-0.4,0.4-0.7c0.1-0.1,0.2-0.2,0.3-0.3c0.1-0.1,0.2-0.3,0.3-0.4
				s0.3-0.3,0.3-0.4c0.1-0.1,0.2-0.2,0.4-0.3c0.1,0,0.2-0.1,0.4-0.2s0.2-0.2,0.2-0.3l0,0c0,0,0,0.1,0.1,0.1s0.1,0,0.1,0s0,0,0.1,0
				s0.1,0,0.2,0.1c0.1,0.1,0.2,0.1,0.3,0.1c0,0.1,0,0.2,0,0.3s0,0.1,0.1,0.1s0.1,0,0.1,0s0,0,0.1,0s0.1,0,0.1,0.1s0.1,0.1,0.1,0.1
				c0,0.2,0,0.3,0,0.4s0.1,0.1,0.1,0.2c0.1,0,0.1,0.1,0.1,0.1s0.1,0.1,0.1,0.2c0,0,0,0.1,0,0.2s-0.1,0.3-0.1,0.4
				c0,0.2-0.1,0.3-0.1,0.5s-0.1,0.3-0.1,0.4c-0.1,0.2-0.2,0.4-0.4,0.6c-0.2,0.3-0.4,0.5-0.5,0.7c-0.2,0.2-0.3,0.4-0.5,0.6
				s-0.4,0.4-0.6,0.6c-0.2,0.2-0.3,0.4-0.5,0.5c-0.1,0.1-0.2,0.2-0.2,0.3c0,0.1,0.1,0.2,0.2,0.3c0.1,0.1,0.3,0.2,0.4,0.2
				c0.1,0,0.2,0.1,0.3,0.1s0.2,0,0.3,0s0.2,0,0.3-0.1s0.2,0,0.4,0c0.3-0.1,0.5-0.2,0.8-0.2c0.2-0.1,0.5-0.1,0.7-0.2
				C13.7,69.4,13.7,69.4,13.8,69.4z"/>
			<path class="st1" d="M22.4,68.7c-0.1,0.1-0.1,0.3-0.1,0.4v0.1v0.1l-0.1,0.1l-0.1,0.1c0,0,0.1,0,0.2,0l0,0c0,0-0.1,0.1-0.1,0
				c0,0-0.1,0.1-0.1,0.2s0,0.1-0.1,0.2c0,0.1,0,0.1,0,0.2s0,0.1,0,0.2c-0.1,0.1-0.1,0.1-0.2,0.1s-0.1,0.1-0.1,0.2
				c-0.1,0.1-0.1,0.2-0.3,0.2c-0.1,0.1-0.2,0.2-0.3,0.2c-0.1,0-0.1,0.1-0.2,0.2s-0.1,0.2-0.1,0.2c-0.1,0-0.3,0-0.4,0
				c-0.2,0-0.3,0-0.3,0c-0.1,0-0.1,0-0.3-0.1c-0.1,0-0.3-0.1-0.4-0.2c-0.2,0-0.3-0.1-0.4-0.1c-0.1-0.1-0.2-0.1-0.2-0.2
				c-0.1-0.3-0.3-0.6-0.4-0.9s-0.2-0.6-0.2-0.9c-0.1-0.2-0.1-0.5-0.1-0.8s0-0.7,0-0.9l0,0l0,0c-0.3,0.3-0.5,0.7-0.9,1.1
				c-0.3,0.4-0.6,0.8-0.9,1.1v0.1c-0.1,0.2-0.2,0.3-0.3,0.5c-0.1,0.2-0.2,0.3-0.3,0.5c-0.1,0.1-0.2,0.3-0.4,0.4
				c-0.2,0.2-0.3,0.3-0.3,0.3c-0.1,0-0.1,0-0.2-0.1c-0.1-0.1-0.1-0.1-0.2-0.1c-0.1,0-0.1,0-0.1,0l0,0c-0.1,0-0.2,0-0.3-0.1
				s-0.1-0.2-0.2-0.3c0-0.1-0.1-0.2-0.1-0.4c0-0.1,0-0.2-0.1-0.2L13.7,70c0-0.1-0.1-0.1-0.1-0.2s0-0.2,0.1-0.5s0.1-0.5,0.1-0.7
				c0.1-0.1,0.1-0.2,0.1-0.3c0-0.1,0.1-0.2,0.1-0.3c0-0.1,0.1-0.3,0.1-0.5s0-0.3,0.1-0.5c0.2-0.5,0.4-1.2,0.7-1.9
				c0.3-0.7,0.5-1.5,0.8-2.2c0,0,0-0.1,0-0.2s0-0.2,0-0.2c0.1-0.1,0.2-0.2,0.3-0.3s0.2-0.2,0.3-0.2c0.1,0.1,0.1,0.1,0.2,0.2
				s0.1,0.1,0.2,0.2c0,0,0.1-0.1,0.1-0.2s0-0.1,0-0.2c0.1,0.1,0.1,0.1,0.2,0.2s0.2,0.1,0.3,0.1c0,0.1,0,0.1,0,0.2s0,0.1,0,0.2l0,0
				l0,0c0,0,0,0,0.1,0v0.2c0,0.1,0,0.1,0,0.2s-0.1,0.2-0.1,0.2c0,0.2-0.1,0.4-0.1,0.6c0,0.2-0.1,0.4-0.1,0.6c0,0.1,0,0.1,0,0.2
				L17,64.8c-0.1,0.3-0.1,0.6-0.1,0.9c0.1-0.1,0.2-0.2,0.2-0.3c0.1-0.1,0.2-0.3,0.3-0.4c0.1-0.1,0.2-0.2,0.3-0.4
				c0.1-0.1,0.2-0.2,0.3-0.2c0.1,0,0.2-0.1,0.3-0.1c0.1,0,0.2,0,0.3-0.1c0.1,0.1,0.1,0.1,0.1,0.1l0.1,0.1c0.1,0,0.1-0.1,0.1-0.1
				s0.1,0,0.1-0.1c0.1,0,0.1,0,0.2,0.1s0.2,0.2,0.3,0.2l0,0c0,0,0,0,0,0.1c0,0,0,0,0,0.1h0.1c0.1,0.2,0.2,0.4,0.3,0.5
				c0.1,0.1,0.1,0.2,0.1,0.2c0,0.1,0,0.1,0,0.1s0,0.1,0,0.3c0,0,0,0.1,0,0.3c0,0.2,0,0.4,0,0.7c0,0.3,0,0.5,0,0.8s0,0.5,0,0.7
				s0,0.3,0,0.5s0,0.4,0,0.6c0.1,0,0.2,0.1,0.3,0c0.1,0,0.2,0,0.3-0.1c0.1-0.1,0.3-0.1,0.4-0.2s0.3-0.2,0.4-0.2
				c0.1-0.1,0.2-0.1,0.3-0.2l0,0c0,0-0.1,0,0,0l0,0h0.1c0.1,0,0.2-0.1,0.3-0.2C22.1,68.9,22.3,68.8,22.4,68.7z M19.1,64.7L19.1,64.7
				L19,64.6v0.1H19.1z"/>
			<path class="st1" d="M40.9,69c0,0.1-0.1,0.1-0.2,0.2c-0.1,0.1-0.2,0.1-0.2,0.2c-0.1,0.1-0.1,0.2-0.1,0.3
				c-0.1,0.1-0.2,0.2-0.3,0.3c-0.1,0.1-0.3,0.2-0.4,0.3c0,0,0,0,0.1,0.1s0.1,0.1,0.1,0.1c-0.1,0-0.2,0.1-0.3,0.1
				c-0.1,0.1-0.3,0.2-0.4,0.2c-0.1,0.1-0.2,0.1-0.3,0.2s-0.2,0.1-0.2,0.1h-0.8c-0.2,0-0.4-0.1-0.6-0.3c-0.2-0.2-0.4-0.4-0.5-0.6
				s-0.3-0.4-0.3-0.6c-0.1-0.2-0.1-0.3-0.1-0.3c0-0.1,0-0.3,0-0.5s0-0.4,0-0.6c-0.1,0.2-0.2,0.4-0.3,0.5c-0.1,0.2-0.2,0.3-0.3,0.5
				c-0.1,0.1-0.1,0.2-0.3,0.4c-0.1,0.2-0.3,0.4-0.5,0.6s-0.4,0.4-0.6,0.5c-0.2,0.2-0.4,0.2-0.5,0.2s-0.1,0-0.2,0c-0.1,0-0.2,0-0.2,0
				c-0.3,0-0.6-0.1-0.7-0.2c-0.2-0.2-0.3-0.3-0.5-0.5c0-0.1,0-0.2-0.1-0.3c0-0.1-0.1-0.2-0.1-0.3c0-0.3,0.1-0.7,0.3-1.1
				c0.2-0.5,0.4-0.9,0.6-1.4c0.2-0.5,0.5-0.9,0.8-1.3s0.5-0.7,0.6-1c0.1-0.1,0.2-0.2,0.3-0.4c0.2-0.2,0.3-0.3,0.4-0.4
				c0.1,0,0.2-0.1,0.3-0.2s0.2-0.2,0.3-0.3v-0.1v-0.1c0.1,0,0.2-0.1,0.2-0.1s0.1,0,0.2-0.1c0.1-0.1,0.2-0.2,0.2-0.3h0.2
				c0.1,0.1,0.2,0.2,0.3,0.2s0.1,0,0.2,0c0.1,0,0.1,0,0.2,0c0.1-0.1,0.2-0.2,0.2-0.3s0-0.1,0.2-0.1c0.1,0,0.1,0,0.1,0.1
				s0,0.1,0.1,0.1s0.1,0,0.1,0l0,0c0.1,0,0.3,0,0.5,0.1s0.3,0.2,0.4,0.3c0,0.1,0.1,0.1,0.1,0.2s0,0.2,0,0.2l0,0c0,0,0,0,0,0.1
				c0,0,0,0.1-0.1,0.3c0,0.2-0.1,0.3-0.2,0.6c-0.1,0.2-0.1,0.5-0.2,0.7c-0.1,0.2-0.1,0.5-0.1,0.6c-0.1,0.3-0.1,0.6-0.2,0.9
				c-0.1,0.4-0.1,0.7-0.1,1s-0.1,0.6-0.1,0.8c0,0.2,0,0.4,0,0.4c0,0.1,0,0.1,0,0.3c0,0.1,0,0.2,0,0.3c0.1,0,0.2,0,0.3,0s0.2,0,0.3,0
				s0.3-0.1,0.5-0.2c0.3-0.1,0.5-0.2,0.9-0.4s0.6-0.3,0.8-0.4C40.7,69,40.9,69,40.9,69z M36.1,65.5L36.1,65.5L36.1,65.5L36.1,65.5
				c-0.4,0.3-0.7,0.7-1,1.3c-0.3,0.5-0.6,1-0.8,1.4l0.1,0.1c0.3-0.4,0.6-0.8,0.9-1.4C35.5,66.5,35.8,66,36.1,65.5z"/>
			<path class="st1" d="M48.6,69c0,0.1-0.1,0.1-0.2,0.2c-0.1,0.1-0.2,0.1-0.2,0.2c-0.1,0.1-0.1,0.2-0.1,0.3
				c-0.1,0.1-0.2,0.2-0.3,0.3c-0.1,0.1-0.3,0.2-0.4,0.3c0,0,0,0,0.1,0.1s0.1,0.1,0.1,0.1c-0.1,0-0.2,0.1-0.3,0.1
				c-0.1,0.1-0.3,0.2-0.4,0.2c-0.1,0.1-0.2,0.1-0.3,0.2s-0.2,0.1-0.2,0.1h-0.8c-0.2,0-0.4-0.1-0.6-0.3c-0.2-0.2-0.4-0.4-0.5-0.6
				s-0.3-0.4-0.3-0.6c-0.1-0.2-0.1-0.3-0.1-0.3c0-0.1,0-0.3,0-0.5s0-0.4,0-0.6c-0.1,0.2-0.2,0.4-0.3,0.5c-0.1,0.2-0.2,0.3-0.3,0.5
				c-0.1,0.1-0.1,0.2-0.3,0.4c-0.1,0.2-0.3,0.4-0.5,0.6s-0.4,0.4-0.6,0.5c-0.2,0.2-0.4,0.2-0.5,0.2s-0.1,0-0.2,0c-0.1,0-0.2,0-0.2,0
				c-0.3,0-0.6-0.1-0.7-0.2c-0.2-0.2-0.3-0.3-0.5-0.5c0-0.1,0-0.2-0.1-0.3c0-0.1-0.1-0.2-0.1-0.3c0-0.3,0.1-0.7,0.3-1.1
				c0.2-0.5,0.4-0.9,0.6-1.4c0.2-0.5,0.5-0.9,0.8-1.3s0.5-0.7,0.6-1c0.1-0.1,0.2-0.2,0.3-0.4c0.2-0.2,0.3-0.3,0.4-0.4
				c0.1,0,0.2-0.1,0.3-0.2s0.2-0.2,0.3-0.3v-0.1v-0.1c0.1,0,0.2-0.1,0.2-0.1s0.1,0,0.2-0.1c0.1-0.1,0.2-0.2,0.2-0.3l0,0
				c0.1,0.1,0.2,0.2,0.3,0.2s0.1,0,0.2,0c0.1,0,0.1,0,0.2,0c0.1-0.1,0.2-0.2,0.2-0.3s0-0.1,0.2-0.1c0.1,0,0.1,0,0.1,0.1
				s0,0.1,0.1,0.1s0.1,0,0.1,0l0,0c0.1,0,0.3,0,0.5,0.1s0.3,0.2,0.4,0.3c0,0.1,0.1,0.1,0.1,0.2s0,0.2,0,0.2l0,0c0,0,0,0,0,0.1
				c0,0,0,0.1-0.1,0.3c0,0.2-0.1,0.3-0.2,0.6c-0.1,0.2-0.1,0.5-0.2,0.7c-0.1,0.2-0.1,0.5-0.1,0.6c-0.1,0.3-0.1,0.6-0.2,0.9
				c-0.1,0.4-0.1,0.7-0.1,1s-0.1,0.6-0.1,0.8c0,0.2,0,0.4,0,0.4c0,0.1,0,0.1,0,0.3c0,0.1,0,0.2,0,0.3c0.1,0,0.2,0,0.3,0s0.2,0,0.3,0
				s0.3-0.1,0.5-0.2c0.3-0.1,0.5-0.2,0.9-0.4c0.3-0.1,0.6-0.3,0.8-0.4C48.4,69,48.5,69,48.6,69z M43.8,65.5L43.8,65.5L43.8,65.5
				L43.8,65.5c-0.4,0.3-0.7,0.7-1,1.3c-0.3,0.5-0.6,1-0.8,1.4l0.1,0.1c0.3-0.4,0.6-0.8,0.9-1.4C43.2,66.5,43.5,66,43.8,65.5z"/>
			<path class="st1" d="M55.9,68.7c-0.1,0.1-0.1,0.3-0.1,0.4v0.1v0.1l-0.1,0.1l-0.1,0.1c0,0,0.1,0,0.2,0l0,0c0,0-0.1,0.1-0.1,0
				c0,0-0.1,0.1-0.1,0.2s0,0.1-0.1,0.2c0,0.1,0,0.1,0,0.2s0,0.1,0.1,0.2c-0.1,0.1-0.1,0.1-0.2,0.1c-0.1,0-0.1,0.1-0.1,0.2
				c-0.1,0.1-0.1,0.2-0.3,0.2c-0.1,0.1-0.2,0.2-0.3,0.2s-0.1,0.1-0.2,0.2c-0.1,0.1-0.1,0.2-0.1,0.2c-0.1,0-0.3,0-0.4,0
				c-0.2,0-0.3,0-0.3,0c-0.1,0-0.1,0-0.3-0.1c-0.1,0-0.3-0.1-0.4-0.2c-0.1-0.1-0.3-0.2-0.4-0.2c-0.1-0.1-0.2-0.1-0.2-0.2
				c-0.1-0.3-0.3-0.6-0.4-0.9c-0.1-0.3-0.2-0.6-0.2-0.9c-0.1-0.2-0.1-0.5-0.1-0.8s0-0.7,0-0.9l0,0l0,0c-0.3,0.3-0.5,0.7-0.9,1.1
				c-0.3,0.4-0.6,0.8-0.9,1.1v0.1c-0.1,0.2-0.2,0.3-0.3,0.5s-0.2,0.3-0.3,0.5c-0.1,0.1-0.2,0.3-0.4,0.4c-0.2,0.2-0.3,0.3-0.3,0.3
				c-0.1,0-0.1,0-0.2-0.1C48.3,71,48.3,71,48.2,71s-0.1,0-0.1,0l0,0c-0.1,0-0.2,0-0.3-0.1s-0.1-0.2-0.2-0.3c0-0.1-0.1-0.2-0.1-0.4
				c0-0.1,0-0.2-0.1-0.2l-0.1-0.1c0-0.1-0.1-0.1-0.1-0.2s0-0.2,0.1-0.5s0.1-0.5,0.1-0.7c0.1-0.1,0.1-0.2,0.1-0.3
				c0-0.1,0.1-0.2,0.1-0.3c0-0.1,0.1-0.3,0.1-0.5s0-0.3,0.1-0.5c0.2-0.5,0.4-1.2,0.7-1.9c0.3-0.7,0.5-1.5,0.8-2.2c0,0,0-0.1,0-0.2
				s0-0.2,0-0.2c0.1-0.1,0.2-0.2,0.3-0.3s0.2-0.2,0.3-0.2C50,62,50,62,50.1,62.1s0.1,0.1,0.2,0.2c0,0,0.1-0.1,0.1-0.2s0-0.1,0-0.2
				c0.1,0.1,0.1,0.1,0.2,0.2c0.1,0.1,0.2,0.1,0.3,0.1c0,0.1,0,0.1,0,0.2s0,0.1,0,0.2l0,0l0,0c0,0,0,0,0.1,0v0.2c0,0.1,0,0.1,0,0.2
				s-0.1,0.2-0.1,0.2c0,0.2-0.1,0.4-0.1,0.6s-0.1,0.4-0.1,0.6c0,0.1,0,0.1,0,0.2l-0.1,0.1c-0.1,0.3-0.1,0.6-0.1,0.9
				c0.1-0.1,0.2-0.2,0.2-0.3c0.1-0.1,0.2-0.3,0.3-0.4s0.2-0.2,0.3-0.4c0.1-0.1,0.2-0.2,0.3-0.2s0.2-0.1,0.3-0.1s0.2,0,0.3-0.1
				c0.1,0.1,0.1,0.1,0.1,0.1l0.1,0.1c0.1,0,0.1-0.1,0.1-0.1s0.1,0,0.1-0.1c0.1,0,0.1,0,0.2,0.1c0.1,0.1,0.2,0.2,0.3,0.2l0,0
				c0,0,0,0,0,0.1c0,0,0,0,0,0.1h0.1c0.1,0.2,0.2,0.4,0.3,0.5s0.1,0.2,0.1,0.2c0,0.1,0,0.1,0,0.1s0,0.1,0,0.3c0,0,0,0.1,0,0.3
				c0,0.2,0,0.4,0,0.7c0,0.3,0,0.5,0,0.8s0,0.5,0,0.7s0,0.3,0,0.5s0,0.4,0,0.6c0.1,0,0.2,0.1,0.3,0c0.1,0,0.2,0,0.3-0.1
				s0.3-0.1,0.4-0.2c0.1-0.1,0.3-0.2,0.4-0.2c0.1-0.1,0.2-0.1,0.3-0.2l0,0c0,0-0.1,0,0,0l0,0h0.1c0.1,0,0.2-0.1,0.3-0.2
				C55.6,68.9,55.8,68.8,55.9,68.7z M52.6,64.7L52.6,64.7l-0.2-0.1v0.1H52.6z"/>
			<path class="st1" d="M64.2,68.7C64.1,68.8,64,69,64,69.1v0.1v0.1l-0.1,0.1l-0.1,0.1c0,0,0.1,0,0.2,0l0,0c0,0-0.1,0.1-0.1,0
				c0,0-0.1,0.1-0.1,0.2s0,0.1-0.1,0.2c0,0.1,0,0.1,0,0.2s0,0.1,0,0.2c-0.1,0.1-0.1,0.1-0.2,0.1c-0.1,0-0.1,0.1-0.1,0.2
				c-0.1,0.1-0.1,0.2-0.3,0.2c0,0.1-0.1,0.2-0.1,0.3c-0.1,0-0.1,0.1-0.2,0.2c-0.1,0.1-0.1,0.2-0.1,0.2c-0.1,0-0.3,0-0.4,0
				c-0.2,0-0.3,0-0.3,0c-0.1,0-0.1,0-0.3-0.1c-0.1,0-0.3-0.1-0.4-0.2C61,71.1,60.9,71,60.8,71c-0.1-0.1-0.2-0.1-0.2-0.2
				c-0.1-0.3-0.3-0.6-0.4-0.9C60.1,69.6,60,69.3,60,69c-0.1-0.2-0.1-0.5-0.1-0.8s0-0.7,0-0.9l0,0l0,0c-0.3,0.3-0.5,0.7-0.9,1.1
				c-0.3,0.4-0.6,0.8-0.9,1.1v0.1c-0.1,0.2-0.2,0.3-0.3,0.5s-0.2,0.3-0.3,0.5c-0.1,0.1-0.2,0.3-0.4,0.4c-0.2,0.2-0.3,0.3-0.3,0.3
				c-0.1,0-0.1,0-0.2-0.1c-0.1-0.1-0.1-0.1-0.2-0.1c-0.1,0-0.1,0-0.1,0l0,0c-0.1,0-0.2,0-0.3-0.1s-0.1-0.2-0.2-0.3
				c0-0.1-0.1-0.2-0.1-0.4c0-0.1,0-0.2-0.1-0.2L55.5,70c0-0.1-0.1-0.1-0.1-0.2s0-0.2,0.1-0.5s0.1-0.5,0.1-0.7
				c0.1-0.1,0.1-0.2,0.1-0.3c0-0.1,0.1-0.2,0.1-0.3c0-0.1,0.1-0.3,0.1-0.5s0-0.3,0.1-0.5c0.2-0.5,0.4-1.2,0.7-1.9
				c0.3-0.7,0.5-1.5,0.8-2.2c0,0,0-0.1,0-0.2s0-0.2,0-0.2c0.1-0.1,0.2-0.2,0.3-0.3S58,62,58.1,62c0.1,0.1,0.1,0.1,0.2,0.2
				c0.1,0.1,0.1,0.1,0.2,0.2c0,0,0.1-0.1,0.1-0.2s0-0.1,0-0.2c0.1,0.1,0.1,0.1,0.2,0.2c0.1,0.1,0.2,0.1,0.3,0.1c0,0.1,0,0.1,0,0.2
				s0,0.1,0,0.2l0,0l0,0c0,0,0,0,0.1,0v0.2c0,0.1,0,0.1,0,0.2s-0.1,0.2-0.1,0.2c0,0.2-0.1,0.4-0.1,0.6c0,0.2-0.1,0.4-0.1,0.6
				c0,0.1,0,0.1,0,0.2l-0.1,0.1c-0.1,0.3-0.1,0.6-0.1,0.9c0.1-0.1,0.2-0.2,0.2-0.3c0.1-0.1,0.2-0.3,0.3-0.4s0.2-0.2,0.3-0.4
				c0.1-0.1,0.2-0.2,0.3-0.2s0.2-0.1,0.3-0.1s0.2,0,0.3-0.1c0.1,0.1,0.1,0.1,0.1,0.1l0.1,0.1c0.1,0,0.1-0.1,0.1-0.1s0.1,0,0.1-0.1
				c0.1,0,0.1,0,0.2,0.1c0.1,0.1,0.2,0.2,0.3,0.2l0,0c0,0,0,0,0,0.1c0,0,0,0,0,0.1h0.1c0.1,0.2,0.2,0.4,0.3,0.5s0.1,0.2,0.1,0.2v0.1
				c0,0,0,0.1,0,0.3c0,0,0,0.1,0,0.3c0,0.2,0,0.4,0,0.7c0,0.3,0,0.5,0,0.8s0,0.5,0,0.7s0,0.3,0,0.5s0,0.4,0,0.6c0.1,0,0.2,0.1,0.3,0
				c0.1,0,0.2,0,0.3-0.1s0.3-0.1,0.4-0.2c0.1-0.1,0.3-0.2,0.4-0.2c0.1-0.1,0.2-0.1,0.3-0.2l0,0c0,0-0.1,0,0,0l0,0h0.1
				c0.1,0,0.2-0.1,0.3-0.2C63.9,68.9,64,68.8,64.2,68.7z M60.9,64.7L60.9,64.7l-0.2-0.1v0.1H60.9z"/>
			<path class="st1" d="M69.1,69.4c-0.1,0-0.2,0.1-0.3,0.1s-0.1,0.1-0.2,0.1c0,0.1,0.1,0.2,0.2,0.2c0,0.1-0.1,0.1-0.1,0.2
				s-0.1,0.2-0.1,0.3c-0.2,0-0.3,0-0.4,0.2s-0.1,0.3-0.1,0.5c-0.1,0-0.2,0.1-0.4,0.1c-0.1,0-0.3,0-0.4,0s-0.1,0,0,0.1h0.1
				c-0.1,0-0.2,0-0.4,0.1c-0.1,0.1-0.3,0.1-0.4,0.1v0.1c0,0,0,0-0.1,0s-0.1,0-0.2-0.1s-0.2-0.1-0.3-0.1c-0.1,0-0.2,0-0.2,0
				c-0.1,0-0.1,0.1-0.1,0.2l-0.2-0.3c-0.3-0.1-0.5-0.2-0.6-0.3c-0.1-0.1-0.3-0.3-0.6-0.6c-0.1-0.1-0.2-0.1-0.2-0.1H64
				c0-0.1-0.1-0.2-0.1-0.3c0-0.2-0.1-0.4-0.2-0.9c-0.1-0.4-0.1-0.7,0-0.9c0.1-0.2,0.1-0.4,0.1-0.6s0.1-0.5,0.3-0.8
				c0.1-0.3,0.3-0.7,0.4-1c0.1-0.2,0.2-0.3,0.3-0.6c0.1-0.2,0.2-0.4,0.4-0.7c0.1-0.1,0.2-0.2,0.3-0.3c0.1-0.1,0.2-0.3,0.3-0.4
				c0.1-0.1,0.3-0.3,0.3-0.4s0.2-0.2,0.4-0.3c0.1,0,0.2-0.1,0.4-0.2s0.2-0.2,0.2-0.3l0,0c0,0,0,0.1,0.1,0.1s0.1,0,0.1,0s0,0,0.1,0
				s0.1,0,0.2,0.1s0.2,0.1,0.3,0.1c0,0.1,0,0.2,0,0.3s0,0.1,0.1,0.1s0.1,0,0.1,0s0,0,0.1,0s0.1,0,0.1,0.1s0.1,0.1,0.1,0.1
				c0,0.2,0,0.3,0,0.4s0.1,0.1,0.1,0.2c0.1,0,0.1,0.1,0.1,0.1s0.1,0.1,0.1,0.2c0,0,0,0.1,0,0.2s-0.1,0.3-0.1,0.4
				c0,0.2-0.1,0.3-0.1,0.5s-0.1,0.3-0.1,0.4c-0.1,0.2-0.2,0.4-0.4,0.6c-0.2,0.3-0.4,0.5-0.5,0.7c-0.2,0.2-0.3,0.4-0.5,0.6
				s-0.4,0.4-0.6,0.6s-0.3,0.4-0.5,0.5c-0.1,0.1-0.2,0.2-0.2,0.3c0,0.1,0.1,0.2,0.2,0.3s0.3,0.2,0.4,0.2s0.2,0.1,0.3,0.1
				c0.1,0,0.2,0,0.3,0c0.1,0,0.2,0,0.3-0.1s0.2,0,0.4,0c0.3-0.1,0.5-0.2,0.8-0.2c0.2-0.1,0.5-0.1,0.7-0.2C69,69.4,69,69.4,69.1,69.4
				z"/>
			<path class="st1" d="M81.5,69.4c0.1,0.1,0.1,0.2,0,0.3c0,0.1-0.1,0.2-0.1,0.2c0,0.1,0,0.2,0.1,0.2c0,0.1-0.1,0.1-0.1,0.1
				l-0.1,0.1c0,0.1,0,0.1,0,0.2c-0.1,0.1-0.3,0.1-0.4,0.2c-0.2,0.1-0.3,0.1-0.3,0.1c-0.1,0-0.2,0-0.3-0.1c-0.2-0.1-0.3-0.1-0.3-0.1
				c-0.1,0-0.1,0,0,0l0,0c-0.1,0-0.2-0.1-0.4-0.2c-0.2-0.2-0.4-0.3-0.5-0.4c-0.2-0.2-0.4-0.5-0.4-0.9c-0.1-0.4-0.1-0.7-0.2-1.1
				c0-0.1,0-0.2,0-0.3c0-0.1,0-0.2-0.1-0.4c-0.1,0.1-0.1,0.2-0.2,0.3s-0.1,0.2-0.2,0.3c-0.1,0.2-0.3,0.4-0.6,0.7
				c-0.3,0.3-0.5,0.6-0.7,0.9c-0.1,0.2-0.3,0.3-0.4,0.5s-0.3,0.3-0.5,0.4v0.1l0,0c-0.1,0.1-0.2,0.1-0.4,0.2
				c-0.1,0.1-0.3,0.1-0.3,0.1c-0.1,0-0.2,0-0.4-0.1s-0.3-0.1-0.5-0.3c-0.2-0.1-0.3-0.2-0.4-0.3c-0.1-0.1-0.2-0.2-0.2-0.3
				c0-0.2,0-0.5,0-0.8s0.1-0.6,0.2-0.9s0.1-0.5,0.2-0.8c0.1-0.2,0.1-0.4,0.1-0.6c0-0.1,0-0.1,0-0.1s0,0,0-0.1l0.1-0.1v-0.1v-0.1
				c-0.3,0.3-0.6,0.7-1,1.2c-0.3,0.5-0.7,0.9-1,1.3v0.1c0,0.1,0,0.1-0.1,0.2c-0.1,0.2-0.3,0.3-0.4,0.5c0,0,0,0.1,0,0.2
				c-0.1,0.1-0.3,0.3-0.4,0.5s-0.2,0.3-0.3,0.5c-0.1,0-0.1,0.1-0.3,0.2C70.6,71,70.5,71,70.4,71s-0.1,0-0.3-0.1
				c-0.1-0.1-0.2-0.2-0.3-0.3c-0.1-0.1-0.2-0.2-0.2-0.3c0-0.1,0-0.3-0.1-0.4c0-0.3,0-0.7,0.1-1.3c0.1-0.5,0.3-1,0.4-1.5
				c0.2-0.5,0.3-1,0.5-1.4c0.1-0.4,0.2-0.7,0.3-0.8c0-0.1,0.1-0.2,0.1-0.4C71,64.3,71,64.2,71,64l0,0c0,0,0,0,0.1-0.1
				c0-0.3,0-0.5,0.1-0.8c0.1-0.2,0.2-0.5,0.3-0.9c0.1,0,0.1,0,0.2-0.1c0.1,0,0.2,0,0.2,0c0.1,0,0.3,0,0.4,0.1c0,0.1,0,0.1,0.1,0.1
				s0.3,0.1,0.4,0.3s0.1,0.3,0.1,0.4s0,0.3-0.1,0.6c-0.1,0.4-0.1,0.6-0.2,0.9c0,0.1-0.1,0.2-0.1,0.4c-0.1,0.2-0.1,0.3-0.2,0.5
				s-0.1,0.3-0.1,0.4s-0.1,0.2,0,0.3c0,0,0,0,0.1-0.1c0,0,0.1-0.1,0.2-0.1c0,0,0.1-0.1,0.3-0.3c0.2-0.2,0.3-0.4,0.5-0.7
				c0.2-0.3,0.4-0.5,0.6-0.8c0.2-0.3,0.4-0.5,0.5-0.7c0.1,0,0.2,0,0.3,0c0.1,0,0.3,0,0.4,0s0.3,0.1,0.5,0.2s0.4,0.2,0.5,0.4
				c0.1,0.1,0.1,0.2,0.2,0.4c0.1,0.2,0.1,0.3,0.1,0.4c0,0,0,0.1,0,0.3c0,0.2,0,0.3-0.1,0.6c0,0.2-0.1,0.4-0.1,0.7s0,0.4-0.1,0.6
				c-0.1,0-0.2,0.1-0.2,0.2s0,0.3,0,0.4l0,0c0,0,0,0,0,0.1c0.1-0.1,0.1-0.1,0.1-0.2c0,0,0.1-0.1,0.2-0.1l2.6-3.1c0,0,0.1,0,0.2,0
				s0.2,0,0.3,0c0.1,0,0.1,0.1,0.2,0.1s0.1,0.1,0.2,0.1c0,0,0,0,0.1,0s0.1,0,0.1,0c0.1,0,0.1,0.1,0.2,0.1s0.1,0.1,0.2,0.2
				s0.1,0.2,0.1,0.3c0,0.1,0.1,0.2,0.2,0.2c0,0,0,0,0,0.1s0,0.1,0,0.1s0,0.1,0,0.3c0,0.1,0,0.3-0.1,0.5c0,0.2,0,0.4-0.1,0.6
				c0,0.2,0,0.4,0,0.5s0,0.4,0,0.6c0,0.3,0,0.5,0,0.5c0,0.3,0.1,0.5,0.2,0.6s0.3,0.2,0.6,0.1c0.1,0,0.2,0,0.4-0.1
				C81.2,69.5,81.4,69.4,81.5,69.4z M77.6,68.1L77.6,68.1l-0.2,0.2l0.1,0.1L77.6,68.1z"/>
			<path class="st1" d="M86.5,69.4c-0.1,0-0.2,0.1-0.3,0.1s-0.1,0.1-0.2,0.1c0,0.1,0.1,0.2,0.2,0.2c0,0.1-0.1,0.1-0.1,0.2
				S86,70.2,86,70.3c-0.2,0-0.3,0-0.4,0.2s-0.1,0.3-0.1,0.5c-0.1,0-0.2,0.1-0.4,0.1c-0.1,0-0.3,0-0.4,0s-0.1,0,0,0.1h0.1
				c-0.1,0-0.2,0-0.4,0.1s-0.3,0.1-0.4,0.1v0.1c0,0,0,0-0.1,0s-0.1,0-0.2-0.1s-0.2-0.1-0.3-0.1c-0.1,0-0.2,0-0.2,0
				c-0.1,0-0.1,0.1-0.1,0.2l-0.2-0.3c-0.3-0.1-0.5-0.2-0.6-0.3c-0.1-0.1-0.3-0.3-0.6-0.6c-0.1-0.1-0.2-0.1-0.2-0.1l-0.1-0.1
				c0-0.1-0.1-0.2-0.1-0.3c0-0.2-0.1-0.4-0.2-0.9c-0.1-0.4,0-0.7,0-0.9c0.1-0.2,0.1-0.4,0.1-0.6s0.1-0.5,0.3-0.8
				c0.1-0.3,0.3-0.7,0.4-1c0.1-0.2,0.2-0.3,0.3-0.6c0.1-0.2,0.2-0.4,0.4-0.7c0.1-0.1,0.2-0.2,0.3-0.3c0.1-0.1,0.2-0.3,0.3-0.4
				c0.1-0.1,0.3-0.3,0.3-0.4c0.1-0.1,0.2-0.2,0.4-0.3c0.1,0,0.2-0.1,0.4-0.2c0.1-0.1,0.2-0.2,0.2-0.3l0,0c0,0,0,0.1,0.1,0.1
				s0.1,0,0.1,0s0,0,0.1,0s0.1,0,0.2,0.1s0.2,0.1,0.3,0.1c0,0.1,0,0.2,0,0.3s0,0.1,0.1,0.1s0.1,0,0.1,0s0,0,0.1,0s0.1,0,0.1,0.1
				s0.1,0.1,0.1,0.1c0,0.2,0,0.3,0,0.4s0.1,0.1,0.1,0.2C86,63.9,86,64,86,64s0.1,0.1,0.1,0.2c0,0,0,0.1,0,0.2S86,64.7,86,64.8
				c0,0.2-0.1,0.3-0.1,0.5s-0.1,0.3-0.1,0.4c-0.1,0.2-0.2,0.4-0.4,0.6c-0.2,0.3-0.4,0.5-0.5,0.7c-0.2,0.2-0.3,0.4-0.5,0.6
				S84,68,83.8,68.2s-0.3,0.4-0.5,0.5c-0.1,0.1-0.2,0.2-0.2,0.3c0,0.1,0.1,0.2,0.2,0.3c0.1,0.1,0.3,0.2,0.4,0.2s0.2,0.1,0.3,0.1
				c0.1,0,0.2,0,0.3,0c0.1,0,0.2,0,0.3-0.1s0.2,0,0.4,0c0.3-0.1,0.5-0.2,0.8-0.2c0.2-0.1,0.5-0.1,0.7-0.2
				C86.4,69.4,86.5,69.4,86.5,69.4z"/>
			<path class="st1" d="M92.6,65c0,0.1-0.1,0.2-0.2,0.3c-0.1,0.1-0.1,0.2-0.1,0.3c-0.1,0-0.2,0-0.4,0c-0.1,0-0.3,0-0.5,0
				c0-0.1,0-0.1,0-0.2s0-0.2-0.1-0.3c-0.4,0.1-0.8,0.4-1.1,0.8c-0.3,0.4-0.6,0.8-0.9,1.2c0-0.1,0-0.1-0.1-0.1
				c-0.1,0.1-0.1,0.2,0,0.2c0,0,0,0-0.1,0L89,67.3c0,0,0,0,0,0.1c0,0,0,0,0,0.1c0,0,0,0-0.1,0c0,0,0,0-0.1,0l0,0h-0.1v0.1h0.1
				c-0.1,0.2-0.3,0.5-0.5,0.7v0.1l0,0c0,0.1-0.1,0.2-0.1,0.2c-0.1,0.1-0.1,0.1-0.2,0.2s-0.1,0.1-0.1,0.2s0,0.2-0.1,0.3
				c-0.1,0.3-0.2,0.6-0.3,0.9c-0.1,0.3-0.1,0.6,0,0.9c-0.1,0.1-0.2,0.1-0.4,0.1c0,0-0.1,0-0.2-0.1S86.7,71,86.6,71
				c0,0-0.1-0.1-0.1-0.2s-0.1-0.1-0.2-0.1c-0.1-0.2-0.1-0.4-0.2-0.6S86,69.8,86,69.6c0,0,0-0.1,0.1-0.2c0-0.1,0.1-0.3,0.1-0.5
				s0.1-0.4,0.1-0.5c0-0.2,0.1-0.3,0.1-0.5c0.1-0.4,0.2-0.7,0.2-1.1c0.1-0.4,0.1-0.7,0.1-1.1c0-0.2,0.1-0.5,0.1-0.8s0.1-0.6,0.1-0.9
				c0-0.2,0.1-0.4,0.1-0.6s0.1-0.4,0.1-0.6h0.2c0.1,0,0.2,0.1,0.4,0.2c0.2,0.1,0.3,0.2,0.3,0.4c0.1,0.1,0.1,0.3,0.1,0.4
				s0.1,0.3,0.1,0.4s0,0.2,0,0.3c0,0.1,0,0.2,0,0.4c0.1-0.1,0.2-0.3,0.3-0.4c0.2-0.1,0.3-0.3,0.5-0.4s0.4-0.3,0.6-0.3
				c0.2-0.1,0.4-0.1,0.5-0.1c0.3,0,0.6,0.1,1,0.2c0.4,0.2,0.7,0.4,0.9,0.7c0,0.1,0.1,0.1,0.1,0.2C92.5,64.9,92.6,64.9,92.6,65z"/>
			<path class="st1" d="M105.7,67.3c0,0.7-0.3,1.4-0.8,2.2c-0.5,0.7-1.1,1.4-1.8,2l-0.1,0.1c0,0.1,0,0.1-0.1,0.2
				c-0.5,0.3-0.9,0.4-1.2,0.4c-0.3,0-0.6-0.1-0.7-0.2c-0.2-0.2-0.4-0.3-0.6-0.5c-0.1-0.1-0.1-0.2-0.2-0.3c-0.1-0.2-0.1-0.3-0.3-0.3
				c0-0.1-0.1-0.3-0.1-0.4c0-0.2-0.1-0.3-0.1-0.3c0-0.2,0-0.5,0.1-0.8s0.2-0.6,0.3-0.9c0.1-0.3,0.2-0.5,0.3-0.7
				c0.1-0.2,0.2-0.4,0.2-0.4v-0.1c0-0.1,0-0.1,0.1-0.2s0.1-0.2,0.2-0.4c0.1-0.1,0.2-0.2,0.2-0.4h0.1c0,0,0,0,0.1,0
				c0,0,0.1,0,0.1-0.1c0,0,0-0.1,0.1-0.1c0.1-0.1,0.1-0.2,0.2-0.2c0.1-0.1,0.2-0.1,0.3-0.2c0-0.1,0.1-0.1,0.1-0.2s0-0.1,0.1-0.2
				h-0.1c-0.1,0-0.1,0-0.1,0.1c0-0.1,0-0.1,0-0.1s-0.1,0.1-0.1,0.2c0-0.1,0-0.1-0.1-0.1l0,0c0,0,0,0,0.1-0.1c0-0.2,0-0.3,0.1-0.5
				c0.1-0.1,0.3-0.2,0.5-0.3c0.2-0.1,0.4-0.2,0.5-0.2c0.2-0.1,0.3-0.1,0.3-0.2c0.1,0.1,0.1,0.1,0.2,0.1s0.2,0,0.3,0
				c0.1,0,0.1,0.1,0.3,0.3c0.1,0.1,0.2,0.2,0.3,0.3c0,0,0,0,0,0.1s0.1,0.1,0.1,0.1h0.1h0.1c0.3,0.4,0.6,0.8,0.7,1.2
				C105.6,66.5,105.7,66.9,105.7,67.3z M104.1,66.7c0-0.1,0-0.2-0.1-0.3c-0.1-0.2-0.1-0.3-0.2-0.4c-0.1,0.2-0.3,0.4-0.4,0.7
				c-0.2,0.2-0.3,0.4-0.4,0.6s-0.2,0.4-0.4,0.7c-0.1,0.3-0.3,0.5-0.4,0.8s-0.2,0.5-0.3,0.7c-0.1,0.2-0.1,0.3-0.1,0.3V70
				c0.1-0.1,0.3-0.2,0.5-0.4c0.2-0.2,0.3-0.2,0.3-0.2c0.1,0,0.1,0,0,0.1s0,0.1,0,0.1c0.1,0,0.1-0.1,0.2-0.2s0.2-0.3,0.3-0.5
				c0.1-0.2,0.2-0.3,0.3-0.5c0.1-0.1,0.2-0.2,0.2-0.3c0,0,0.1-0.1,0.1-0.3c0.1-0.1,0.1-0.3,0.2-0.5s0.1-0.3,0.1-0.4
				C104,66.7,104.1,66.7,104.1,66.7z M103.6,65.8v-0.3h-0.1L103.6,65.8L103.6,65.8z"/>
			<path class="st1" d="M112.8,66.8c0,0.4-0.1,0.9-0.3,1.3c-0.2,0.5-0.4,1-0.7,1.4c-0.3,0.5-0.6,0.9-1,1.3s-0.7,0.7-1.1,0.9
				c-0.1,0-0.1,0-0.3,0c-0.1,0-0.2,0-0.3,0l0,0c0,0-0.1-0.1-0.1,0h-0.1h-0.2c-0.1-0.1-0.2-0.2-0.2-0.4c-0.1-0.1-0.2-0.3-0.2-0.4
				s-0.2-0.3-0.2-0.3c-0.1-0.1-0.1-0.2-0.1-0.2c0-0.1,0-0.1,0.1-0.2s0.1-0.1,0.2-0.2c0-0.1,0-0.1-0.1-0.1c0,0,0,0,0.1,0h0.1
				c0.1,0,0.2-0.1,0.3-0.2s0.2-0.2,0.4-0.3c0.5-0.4,0.9-0.9,1.2-1.5c0.3-0.5,0.5-1.1,0.5-1.5c-0.4-0.1-0.8,0.2-1.4,0.6
				c-0.1,0.1-0.2,0.1-0.2,0.3c-0.1,0.1-0.2,0.2-0.2,0.3c-0.1,0.1-0.2,0.2-0.2,0.3c-0.1,0.1-0.1,0.1-0.1,0.1c-0.1,0-0.1,0,0,0
				c0,0,0,0,0-0.1c-0.1,0.1-0.1,0.2-0.2,0.4c-0.1,0.1-0.2,0.3-0.2,0.4c-0.1,0.1-0.1,0.3-0.2,0.6c-0.1,0.3-0.2,0.5-0.2,0.8
				c-0.1,0.3-0.2,0.6-0.2,0.9c-0.1,0.3-0.1,0.6-0.2,0.9c0,0.2-0.1,0.3-0.2,0.6c-0.1,0.2-0.1,0.4-0.2,0.6c-0.1,0.4-0.2,0.8-0.3,1.2
				c-0.1,0.4-0.1,0.8-0.2,1.2c0,0.1,0,0.2-0.1,0.4c-0.1,0.1-0.1,0.3-0.2,0.4h-0.1c-0.1,0-0.1,0,0-0.1s0-0.1,0-0.1
				c-0.1,0-0.1,0-0.1,0.1s0,0.1-0.1,0.1s-0.1,0-0.2-0.1s-0.1-0.1-0.2-0.1c0,0,0,0,0-0.1v-0.1c-0.1-0.1-0.2-0.2-0.3-0.3
				c-0.1-0.1-0.2-0.2-0.3-0.3c0-0.1,0.1-0.1,0.1-0.2s0.1-0.1,0.1-0.2s0-0.2,0-0.3c0-0.1,0-0.2,0-0.4v-0.1l0.1-0.1
				c0-0.1,0.1-0.1,0-0.3c0-0.1,0-0.2,0-0.3c0-0.1,0.1-0.3,0.2-0.5s0.2-0.4,0.3-0.4c0.2-0.7,0.3-1.5,0.5-2.4c0.2-0.8,0.3-1.7,0.5-2.5
				c0-0.1,0-0.2,0-0.2c0-0.1,0-0.2,0-0.3c0.1-0.2,0.1-0.4,0.2-0.6s0.1-0.4,0.2-0.6c0-0.1,0-0.1,0-0.2s0-0.2,0-0.3
				c0.2-0.6,0.4-1.2,0.6-1.9c0.2-0.7,0.4-1.3,0.5-1.9c0-0.1,0-0.2-0.1-0.3h0.1c0,0,0,0,0.1,0s0.1,0,0.1-0.1s0.1-0.1,0.1-0.1
				c0.1,0,0.1,0.1,0.3,0.2c0.1,0.1,0.3,0.2,0.4,0.3c0,0.1,0,0.2,0.1,0.3c0,0.1,0.1,0.3,0.1,0.4s0,0.3,0,0.4s0,0.2,0,0.2
				s0,0.1-0.1,0.3c0,0.2-0.1,0.4-0.1,0.6c-0.1,0.3-0.1,0.5-0.2,0.8s-0.1,0.5-0.2,0.7l0.1,0.1h0.1l0,0l0,0c-0.1,0.1-0.1,0.2-0.2,0.3
				c-0.1,0.1-0.2,0.2-0.2,0.3l0,0l0,0c0.1-0.1,0.2-0.2,0.3-0.4c0.2-0.2,0.3-0.3,0.5-0.5s0.4-0.3,0.6-0.4s0.4-0.2,0.5-0.2
				s0.2,0,0.4,0.1c0.2,0.1,0.4,0.1,0.6,0.1c0.1,0,0.1,0.1,0.2,0.2s0.2,0.1,0.2,0.2c0.3,0.1,0.5,0.4,0.6,0.7
				C112.8,66.3,112.8,66.6,112.8,66.8z"/>
			<path class="st1" d="M132.9,66.7c0,0.5,0,0.9-0.1,1.4c-0.1,0.4-0.2,0.9-0.3,1.3c-0.1,0.3-0.2,0.7-0.3,1s-0.3,0.6-0.4,0.8
				c-0.1,0.1-0.2,0.2-0.3,0.4c-0.1,0.1-0.2,0.2-0.3,0.3c-0.1,0.1-0.2,0.1-0.3,0.1s-0.2-0.1-0.5-0.2s-0.5-0.2-0.6-0.3
				c-0.1-0.1-0.2-0.2-0.3-0.4c-0.1-0.2-0.2-0.5-0.2-0.7c-0.1-0.2-0.1-0.5-0.2-0.7c-0.1-0.3-0.2-0.5-0.2-0.8
				c-0.1-0.3-0.1-0.6-0.2-0.9c-0.1,0.1-0.1,0.1-0.2,0.2c-0.1,0.1-0.1,0.2-0.2,0.3c0,0.1-0.1,0.1-0.2,0.2c-0.1,0.1-0.1,0.2-0.1,0.3
				h-0.1h-0.1c-0.3,0.4-0.6,0.7-0.9,1s-0.6,0.6-0.8,0.9c-0.1,0.2-0.3,0.3-0.6,0.5c-0.2,0.2-0.4,0.3-0.6,0.4V72h-0.7
				c-0.1,0-0.2,0-0.3-0.1c-0.1-0.1-0.3-0.1-0.3-0.2c-0.1,0-0.1-0.1-0.2-0.2s-0.1-0.2-0.2-0.4c-0.1-0.1-0.1-0.3-0.2-0.4
				c0-0.1,0-0.2,0-0.3c0-0.3,0-0.6,0-1.1c0-0.4,0.1-0.8,0.3-1.3c0.2-0.4,0.4-0.8,0.7-1.2c0.2-0.4,0.4-0.7,0.6-0.9
				c0.1-0.3,0.3-0.6,0.6-1c0.3-0.4,0.6-0.8,0.8-1.2c0.2,0,0.4,0,0.5,0s0.3,0.1,0.5,0.3c0.1,0.1,0.2,0.2,0.2,0.3
				c0.1,0.2,0.1,0.3,0.2,0.4c-0.1,0.1-0.1,0.1-0.2,0.2c0,0.1-0.1,0.2-0.2,0.3v0.2c-0.2,0.3-0.4,0.6-0.6,0.9s-0.4,0.7-0.7,1.1
				c-0.2,0.4-0.4,0.7-0.6,1.1s-0.2,0.7,0,0.9v0.1c0.1-0.1,0.2-0.2,0.3-0.3c0.1-0.1,0.3-0.3,0.4-0.5s0.3-0.4,0.4-0.6
				c0.2-0.2,0.3-0.3,0.4-0.5c0.3-0.5,0.5-0.8,0.6-0.9s0.2-0.3,0.2-0.3c0.1-0.1,0.2-0.1,0.3-0.2c0.1,0,0.3,0,0.5,0
				c0.1,0,0.1,0,0.2,0.1c0.1,0.1,0.1,0.1,0.2,0.2c0.3,0.1,0.5,0.2,0.7,0.3c0.2,0.2,0.4,0.4,0.4,0.8c0.1,0.4,0.2,0.7,0.3,1
				s0.2,0.5,0.2,0.7c0.2-0.2,0.3-0.5,0.4-0.7c0.1-0.3,0.2-0.6,0.3-0.8c0.1-0.3,0.1-0.5,0.2-0.8c0.1-0.3,0.1-0.5,0.1-0.7s0-0.4,0-0.7
				c0-0.3,0-0.5,0-0.8c0-0.1,0-0.2,0-0.4c0-0.2,0-0.3,0-0.5c0,0,0,0.1,0.1,0.2l0.1,0.1c0.1,0,0.1,0,0.1,0.1c0,0,0,0,0,0.1
				c0,0,0,0.1,0.1,0.1c0.1-0.1,0.1-0.1,0.2-0.1v0.2c0.1,0.1,0.3,0.1,0.4,0.1c0.2,0.3,0.3,0.6,0.4,1
				C132.9,66.1,132.9,66.4,132.9,66.7z"/>
			<path class="st1" d="M137.7,68.6c-0.1,0.1-0.1,0.1-0.1,0.2s0,0.2,0,0.4c0,0.1,0,0.2,0,0.4s-0.1,0.2-0.2,0.3h0.1
				c0,0,0.1,0,0.1,0.1s0,0.1-0.1,0.2s-0.1,0.1-0.1,0.1c-0.1,0.1-0.1,0.2-0.1,0.3c-0.2,0.1-0.3,0.2-0.5,0.4c-0.2,0.2-0.4,0.4-0.5,0.5
				v0.1c0,0,0,0.1-0.1,0.1c-0.1,0.1-0.3,0.1-0.4,0.2c-0.2,0.1-0.3,0.1-0.4,0.1c-0.3,0-0.6,0-0.9-0.2c-0.2-0.2-0.5-0.4-0.6-0.6
				c-0.2-0.3-0.3-0.5-0.4-0.8c-0.1-0.3-0.1-0.6-0.2-0.8c0-0.1,0-0.3,0-0.6c0-0.3,0.1-0.5,0.1-0.7c0.1-0.2,0.1-0.4,0.1-0.5
				c0-0.2,0.1-0.3,0.1-0.3c0.2-0.8,0.4-1.5,0.7-2.1c0-0.1,0-0.1,0-0.3l0.1-0.1c0-0.1,0.1-0.1,0.1-0.2c0.1,0,0.2,0,0.2,0
				c0.1,0,0.1,0,0.2-0.1c0.3,0,0.5,0.1,0.8,0.3c0.3,0.2,0.4,0.5,0.5,0.7c0,0.1,0,0.1,0,0.2s0,0.1-0.1,0.2c-0.1,0.2-0.1,0.6-0.2,1.1
				c-0.1,0.5-0.2,0.8-0.3,1c0,0.1-0.1,0.2-0.1,0.4c0,0.1-0.1,0.3-0.1,0.4c-0.1,0.4-0.2,0.7-0.3,0.9c-0.1,0.2-0.1,0.4,0,0.6
				c0.5-0.2,0.9-0.5,1.4-0.8C137,69.2,137.4,68.9,137.7,68.6z M137,61.5c-0.1,0.1-0.1,0.3-0.1,0.4s0,0.3,0.1,0.4s0,0.2-0.1,0.3
				s-0.2,0.1-0.4,0.1c-0.1,0-0.3,0-0.4-0.1c-0.1-0.1-0.3-0.1-0.4-0.2c0,0,0,0,0-0.1c0,0,0,0,0-0.1c-0.1-0.1-0.3-0.2-0.4-0.4
				c-0.1-0.2-0.2-0.4-0.2-0.6c0-0.1-0.1-0.2,0-0.3c0-0.1,0-0.3-0.1-0.3c0.2,0,0.4,0,0.5,0s0.3,0,0.4-0.1c0.1,0,0.2-0.1,0.3-0.1
				s0.2-0.1,0.3-0.1c0.1,0.1,0.1,0.2,0.2,0.2s0.1,0.1,0.2,0.2c0.1,0.1,0.1,0.1,0,0.3C136.8,61.3,136.8,61.4,137,61.5z"/>
			<path class="st1" d="M142.6,70.2c-0.1,0-0.2,0.1-0.3,0.1s-0.1,0.1-0.2,0.1c0,0.1,0.1,0.2,0.2,0.2c0,0.1-0.1,0.1-0.1,0.2
				s-0.1,0.2-0.1,0.3c-0.2,0-0.3,0-0.4,0.2c-0.1,0.2-0.1,0.3-0.1,0.5c-0.1,0-0.2,0.1-0.4,0.1c-0.1,0-0.3,0-0.4,0c-0.1,0-0.1,0,0,0.1
				h0.1c-0.1,0-0.2,0-0.4,0.1c-0.1,0.1-0.3,0.1-0.4,0.1v0.1c0,0,0,0-0.1,0s-0.1,0-0.2-0.1s-0.2-0.1-0.3-0.1s-0.2,0-0.2,0
				c-0.1,0-0.1,0.1-0.1,0.2L139,72c-0.3-0.1-0.5-0.2-0.6-0.3c-0.1-0.1-0.3-0.3-0.6-0.6c-0.1-0.1-0.2-0.1-0.2-0.1l-0.1-0.1
				c0-0.1-0.1-0.2-0.1-0.3c0-0.2-0.1-0.4-0.2-0.9c-0.1-0.4,0-0.7,0-0.9c0.1-0.2,0.1-0.4,0.1-0.6s0.1-0.5,0.3-0.8
				c0.1-0.3,0.3-0.7,0.4-1c0.1-0.2,0.2-0.3,0.3-0.6c0.1-0.2,0.2-0.4,0.4-0.7c0.1-0.1,0.2-0.2,0.3-0.3c0.1-0.1,0.2-0.3,0.3-0.4
				s0.3-0.3,0.3-0.4s0.2-0.2,0.4-0.3c0.1,0,0.2-0.1,0.4-0.2c0.1-0.1,0.2-0.2,0.2-0.3l0,0c0,0,0,0.1,0.1,0.1s0.1,0,0.1,0s0,0,0.1,0
				s0.1,0,0.2,0.1s0.2,0.1,0.3,0.1c0,0.1,0,0.2,0,0.3s0,0.1,0.1,0.1s0.1,0,0.1,0s0,0,0.1,0s0.1,0,0.1,0.1s0.1,0.1,0.1,0.1
				c0,0.2,0,0.3,0,0.4s0.1,0.1,0.1,0.2c0.1,0,0.1,0.1,0.1,0.1s0.1,0.1,0.1,0.2c0,0,0,0.1,0,0.2s-0.1,0.3-0.1,0.4
				c0,0.2-0.1,0.3-0.1,0.5s-0.1,0.3-0.1,0.4c-0.1,0.2-0.2,0.4-0.4,0.6c-0.2,0.3-0.4,0.5-0.5,0.7c-0.2,0.2-0.3,0.4-0.5,0.6
				s-0.4,0.4-0.6,0.6c-0.2,0.2-0.3,0.4-0.5,0.5c-0.1,0.1-0.2,0.2-0.2,0.3c0,0.1,0.1,0.2,0.2,0.3c0.1,0.1,0.3,0.2,0.4,0.2
				c0.1,0,0.2,0.1,0.3,0.1s0.2,0,0.3,0s0.2,0,0.3-0.1s0.2,0,0.4,0c0.3-0.1,0.5-0.2,0.8-0.2c0.2-0.1,0.5-0.1,0.7-0.2
				C142.4,70.2,142.5,70.2,142.6,70.2z"/>
			<path class="st1" d="M155.5,66.5c0,0.1,0,0.2-0.1,0.3c0,0.1-0.1,0.2-0.1,0.3c0,0.2-0.1,0.4-0.1,0.5c0,0.2,0,0.3,0,0.4
				s0,0.3,0,0.6c0,0.3,0,0.5,0,0.7c-0.1,0.6-0.2,1.2-0.4,1.8c-0.1,0.6-0.3,1.2-0.3,1.8c0,0,0,0.1,0,0.2s0,0.1,0,0.2
				c-0.1,0.3-0.2,0.7-0.3,1.1s-0.2,0.8-0.5,1.1c0,0.1,0,0.1,0,0.2s-0.1,0.2-0.1,0.2c0,0.1,0,0.1,0,0.2s0,0.2,0,0.3
				c-0.1,0.4-0.3,0.9-0.5,1.4c-0.1,0.3-0.3,0.5-0.4,0.8c-0.1,0.3-0.3,0.5-0.4,0.8c0,0.1-0.1,0.1-0.2,0.2c-0.1,0.1-0.2,0.2-0.3,0.3
				s-0.2,0.2-0.2,0.3c-0.1,0.1-0.1,0.2-0.1,0.2c-0.1,0.1-0.2,0.2-0.4,0.4c-0.2,0.2-0.5,0.4-0.8,0.5c-0.3,0.2-0.6,0.3-0.8,0.5
				c-0.3,0.1-0.5,0.2-0.7,0.2c-0.1,0-0.2,0-0.4-0.1s-0.3-0.1-0.4-0.1c-0.4-0.1-0.7-0.3-0.9-0.5c-0.3-0.3-0.5-0.5-0.7-0.9
				c-0.2-0.3-0.3-0.6-0.4-1c-0.1-0.3-0.2-0.7-0.2-0.9c0-0.3,0-0.5,0-0.7s0-0.3,0-0.4s0-0.1,0-0.2v-0.1c0-0.1,0.1-0.2,0.1-0.4
				c0-0.1,0.1-0.3,0.1-0.4c0,0.1,0,0.2,0,0.2c0,0.1,0,0.1,0,0.2c0.1-0.2,0.1-0.4,0.2-0.6s0.1-0.4,0.1-0.6c0.1-0.3,0.2-0.6,0.3-0.8
				c0.1-0.3,0.3-0.5,0.4-0.8V74c0,0,0,0.1,0.1,0.1c0,0,0,0,0,0.1v1.6h0.1v0.1c0,0.1,0,0.1,0,0.2s0,0.2,0,0.3c0,0.2,0,0.4-0.1,0.7
				c0,0.3-0.1,0.5-0.1,0.5c0,0.1,0,0.2,0.1,0.3c0,0.2,0.1,0.3,0.1,0.4c0,0,0,0.1,0,0.3c0,0.2,0,0.3,0,0.5s0.1,0.4,0.1,0.5
				c0.1,0.2,0.2,0.2,0.3,0.2c0.3,0,0.7-0.1,1.1-0.3c0.4-0.2,0.8-0.5,1.1-0.8c0.4-0.3,0.7-0.6,1-1c0.3-0.3,0.5-0.6,0.6-0.8
				c0-0.1,0.1-0.1,0.1-0.2s0-0.2,0.1-0.2c0.3-0.5,0.5-0.9,0.6-1.2c0.1-0.3,0.2-0.6,0.3-1s0.2-0.8,0.4-1.3c0.1-0.5,0.2-1,0.3-1.4
				c0-0.1,0.1-0.2,0.1-0.4c0.1-0.2,0.1-0.4,0.1-0.5c0.1-0.4,0.1-0.9,0.2-1.3c0-0.4,0.1-0.9,0.2-1.3c0.1-0.4,0.1-0.8,0.2-1.3
				c0.1-0.4,0.1-0.9,0.2-1.3c0-0.2,0.1-0.4,0.1-0.6s0-0.4-0.1-0.6h0.1h0.1c0.1,0,0.2,0,0.3,0.1c0.2,0.1,0.3,0.2,0.4,0.2
				c0.2,0.2,0.3,0.4,0.3,0.6c0,0.1,0.1,0.3,0.1,0.5C155.5,66.3,155.5,66.5,155.5,66.5z M146,76.1l-0.1,0.4h-0.1L146,76.1L146,76.1z
				 M156.8,61.9c0,0.1,0,0.1,0,0.2s-0.1,0.2-0.1,0.3c-0.1,0.1-0.3,0.1-0.4,0.2s-0.3,0.1-0.3,0.1c-0.1,0-0.1,0-0.2-0.1
				c-0.1-0.1-0.2-0.2-0.3-0.3s-0.2-0.2-0.3-0.3s-0.2-0.2-0.2-0.2c-0.1-0.3-0.1-0.5-0.1-0.7s-0.1-0.4-0.1-0.6c0-0.1,0.1-0.1,0.1-0.2
				s0.1-0.1,0.2-0.1c0.1,0,0.1,0.1,0.3,0.2c0.1,0.1,0.3,0.2,0.4,0.3c0.1,0.1,0.1,0.1,0.2,0.2c0.1,0.1,0.2,0.1,0.3,0.2
				s0.2,0.2,0.4,0.4C156.7,61.7,156.8,61.8,156.8,61.9z"/>
			<path class="st1" d="M161.8,70.2c-0.1,0-0.2,0.1-0.3,0.1s-0.1,0.1-0.2,0.1c0,0.1,0.1,0.2,0.2,0.2c0,0.1-0.1,0.1-0.1,0.2
				s-0.1,0.2-0.1,0.3c-0.2,0-0.3,0-0.4,0.2s-0.1,0.3-0.1,0.5c-0.1,0-0.2,0.1-0.4,0.1c-0.1,0-0.3,0-0.4,0c-0.1,0-0.1,0,0,0.1h0.1
				c-0.1,0-0.2,0-0.4,0.1s-0.3,0.1-0.4,0.1v0.1c0,0,0,0-0.1,0s-0.1,0-0.2-0.1s-0.2-0.1-0.3-0.1s-0.2,0-0.2,0c-0.1,0-0.1,0.1-0.1,0.2
				l-0.2-0.3c-0.3-0.1-0.5-0.2-0.6-0.3c-0.1-0.1-0.3-0.3-0.6-0.6c-0.1-0.1-0.2-0.1-0.2-0.1l-0.1-0.1c0-0.1-0.1-0.2-0.1-0.3
				c0-0.2-0.1-0.4-0.2-0.9c-0.1-0.4,0-0.7,0-0.9c0.1-0.2,0.1-0.4,0.1-0.6s0.1-0.5,0.3-0.8c0.1-0.3,0.3-0.7,0.4-1
				c0.1-0.2,0.2-0.3,0.3-0.6c0.1-0.2,0.2-0.4,0.4-0.7c0.1-0.1,0.2-0.2,0.3-0.3c0.1-0.1,0.2-0.3,0.3-0.4s0.3-0.3,0.3-0.4
				c0.1-0.1,0.2-0.2,0.4-0.3c0.1,0,0.2-0.1,0.4-0.2c0.1-0.1,0.2-0.2,0.2-0.3l0,0c0,0,0,0.1,0.1,0.1s0.1,0,0.1,0s0,0,0.1,0
				s0.1,0,0.2,0.1s0.2,0.1,0.3,0.1c0,0.1,0,0.2,0,0.3s0,0.1,0.1,0.1s0.1,0,0.1,0s0,0,0.1,0s0.1,0,0.1,0.1s0.1,0.1,0.1,0.1
				c0,0.2,0,0.3,0,0.4s0.1,0.1,0.1,0.2c0.1,0,0.1,0.1,0.1,0.1s0.1,0.1,0.1,0.2c0,0,0,0.1,0,0.2s-0.1,0.3-0.1,0.4
				c0,0.2-0.1,0.3-0.1,0.5s-0.1,0.3-0.1,0.4c-0.1,0.2-0.2,0.4-0.4,0.6c-0.2,0.3-0.4,0.5-0.5,0.7c-0.2,0.2-0.3,0.4-0.5,0.6
				s-0.4,0.4-0.6,0.6c-0.2,0.2-0.3,0.4-0.5,0.5c-0.1,0.1-0.2,0.2-0.2,0.3c0,0.1,0.1,0.2,0.2,0.3c0.1,0.1,0.3,0.2,0.4,0.2
				c0.1,0,0.2,0.1,0.3,0.1s0.2,0,0.3,0s0.2,0,0.3-0.1s0.2,0,0.4,0c0.3-0.1,0.5-0.2,0.8-0.2c0.2-0.1,0.5-0.1,0.7-0.2
				C161.6,70.2,161.7,70.2,161.8,70.2z"/>
			<path class="st1" d="M180,72.4c0,0-0.1,0.1-0.2,0c-0.1,0-0.1,0-0.2,0c-0.1,0-0.1,0-0.1,0s0,0,0,0.1c-0.1-0.1-0.2-0.1-0.4-0.2
				c-0.1,0-0.3-0.1-0.3-0.1c-0.1,0-0.1,0-0.1,0.1h-0.1c-0.1,0-0.1,0-0.1,0s0,0-0.1,0s-0.3,0-0.5-0.1s-0.4-0.2-0.6-0.2
				c-0.2-0.1-0.4-0.2-0.5-0.2c-0.2-0.1-0.3-0.1-0.3-0.2c-0.1-0.1-0.3-0.2-0.5-0.2s-0.4-0.2-0.5-0.3c-0.3-0.2-0.6-0.4-0.9-0.7
				c-0.3-0.3-0.6-0.6-0.9-1c-0.1,0.3-0.2,0.5-0.3,0.7s-0.2,0.5-0.2,0.8c0,0.1-0.1,0.3-0.1,0.5s-0.1,0.4-0.1,0.5c0,0,0,0,0,0.1l0,0
				c0,0.1,0,0.3,0,0.5s0,0.4,0,0.6c0,0.1-0.1,0.2-0.3,0.2c0,0-0.1,0-0.2-0.1c-0.1-0.1-0.2-0.1-0.4-0.1c0-0.1-0.1-0.1-0.1-0.1
				l-0.1-0.1c-0.1-0.1-0.1-0.3-0.2-0.5c-0.1-0.2-0.1-0.4-0.1-0.4s0-0.1,0-0.2s0-0.2,0-0.3c0-0.1,0-0.3,0-0.4s0-0.3,0-0.4
				c0-0.5,0.2-1,0.3-1.7c0.2-0.6,0.4-1.3,0.5-2c0-0.1,0-0.1,0-0.2c0.3-1,0.6-2,0.9-3.1c0.3-1.1,0.6-2.1,0.9-3.1
				c0.1-0.2,0.1-0.5,0.2-0.8c0.1-0.3,0.2-0.6,0.2-1c0.1-0.3,0.2-0.7,0.2-1c0.1-0.4,0.1-0.7,0.2-1c0-0.1,0.1-0.2,0.1-0.2
				c0-0.1,0.1-0.2,0.1-0.2c0.1,0.2,0.2,0.3,0.4,0.4s0.3,0.2,0.5,0.3c0.1,0.2,0.2,0.5,0.3,0.8s0.1,0.5,0.1,0.6c0,0,0,0.1,0,0.3
				c0,0.1,0,0.3-0.1,0.4c-0.1,0.4-0.2,0.9-0.3,1.3c-0.1,0.5-0.2,0.9-0.3,1.4l-0.1,0.1l-0.1,0.1v0.1v0.1c-0.2,0.3-0.3,0.6-0.4,0.8
				s-0.1,0.5-0.2,0.7c-0.1,0.2-0.1,0.4-0.1,0.6s-0.1,0.4-0.2,0.6v0.1l0,0c0,0,0,0,0.1,0s0.2,0,0.2-0.1s0.1,0,0.2,0
				c0,0,0.1-0.1,0.2-0.1c0.1-0.1,0.2-0.2,0.4-0.3c0.2-0.1,0.3-0.2,0.5-0.3c0.2-0.1,0.4-0.1,0.7-0.2c0,0,0.1,0,0.2,0.1
				c0.1,0.1,0.2,0.1,0.3,0.2s0.2,0.2,0.3,0.3c0.1,0.1,0.2,0.2,0.3,0.2c-0.1,0.1-0.1,0.2-0.1,0.4c0,0.2,0,0.3,0,0.4
				c-0.1,0-0.1,0.1-0.2,0.1c-0.1,0-0.1,0.1-0.1,0.2h-0.1h-0.1c-0.1,0.1-0.2,0.3-0.3,0.5l-0.1-0.1c-0.2,0.1-0.4,0.2-0.6,0.4
				c-0.3,0.2-0.5,0.3-0.7,0.5c0,0-0.1,0.1-0.2,0.1s-0.1,0.1-0.2,0.1c-0.2,0.2-0.4,0.3-0.5,0.4s-0.2,0.3-0.3,0.4s-0.2,0.2-0.1,0.3
				c0,0.1,0.1,0.2,0.2,0.3c0.1,0.1,0.2,0.2,0.3,0.4c0.1,0.1,0.2,0.2,0.4,0.3c0.1,0.1,0.2,0.1,0.2,0.1c0.1,0.1,0.3,0.2,0.5,0.4
				c0.2,0.1,0.4,0.3,0.6,0.4c0.2,0.1,0.4,0.3,0.8,0.4c0.3,0.2,0.6,0.3,0.9,0.4c0.2,0.1,0.5,0.2,0.7,0.4
				C179.5,72.1,179.7,72.3,180,72.4z"/>
			<path class="st1" d="M187.7,69.4c-0.1,0-0.2,0.1-0.3,0.3c0,0.1,0.1,0.1,0.1,0.2s0.1,0.1,0.1,0.2c-0.1,0.1-0.2,0.3-0.3,0.5
				c0,0.1,0,0.1,0,0.1c-0.1,0.1-0.2,0.2-0.3,0.3c0,0,0.1,0.1,0.1,0c0,0,0.1,0,0.1-0.1V71h-0.1c-0.1,0-0.1,0-0.1,0s0,0,0-0.1V71
				c0,0,0,0.1-0.1,0.1l-0.1,0.1c-0.1,0.1-0.1,0.1-0.2,0.2c-0.1,0.1-0.3,0.2-0.5,0.3s-0.3,0.2-0.4,0.2c-0.2,0-0.5,0-0.7-0.1
				c-0.3-0.1-0.5-0.1-0.7-0.2c0,0-0.1-0.1-0.2-0.2c-0.1-0.1-0.1-0.2-0.2-0.2c-0.1-0.2-0.2-0.5-0.3-0.7c-0.1-0.3-0.2-0.5-0.3-0.7
				c0-0.1-0.1-0.2,0-0.3c0-0.1,0-0.2,0-0.3c0-0.1,0-0.2-0.1-0.3c-0.4,0.4-0.7,0.9-1.1,1.3c-0.4,0.5-0.7,1-1,1.5c0,0-0.1,0.1-0.2,0.1
				c-0.1,0-0.1,0.1-0.2,0.1l0,0c0,0,0,0,0.1,0.1c-0.1,0-0.2,0-0.3,0s-0.2,0-0.3,0c0-0.1-0.1-0.2-0.2-0.2c-0.1-0.1-0.2-0.1-0.3-0.2
				s-0.1-0.1-0.2-0.2c-0.1-0.1-0.1-0.2-0.1-0.3c0-0.1-0.1-0.2-0.1-0.4c0-0.2,0-0.3,0-0.3c0-0.5,0-0.9,0.1-1.2
				c0.1-0.3,0.2-0.7,0.3-1.2c0.1-0.1,0.2-0.2,0.2-0.3c0.1-0.1,0.1-0.2,0.1-0.4c0-0.1,0-0.1,0-0.2s0-0.1,0-0.2s0.1-0.2,0.2-0.2
				c0.1-0.1,0.1-0.1,0.1-0.1c0.1-0.1,0.1-0.1,0.1-0.2s0-0.2,0-0.3c0,0,0-0.1,0.1-0.1c0,0,0.1,0,0.1-0.1v-0.1c0,0,0,0,0-0.1
				c0.1-0.2,0.2-0.4,0.3-0.6s0.2-0.4,0.3-0.6s0.2-0.4,0.4-0.5s0.3-0.2,0.6-0.2c0.1,0,0.1,0,0.2,0c0.1,0,0.1,0,0.2,0
				c0,0.1,0.1,0.2,0.1,0.2c0.1,0.1,0.1,0.2,0.2,0.2v0.1c0,0,0,0.1,0,0.2c0,0.3-0.1,0.6-0.3,1s-0.4,0.7-0.5,1.1
				c-0.1,0.2-0.2,0.4-0.3,0.6s-0.2,0.4-0.3,0.6s-0.2,0.4-0.3,0.6s-0.2,0.5-0.3,0.7v0.1v0.1c-0.1,0.1-0.1,0.2-0.2,0.4
				s-0.1,0.3-0.1,0.4v0.1l0,0c0.7-0.8,1.3-1.5,1.9-2.2c0.6-0.7,1.1-1.4,1.5-2.2c0.1-0.1,0.2-0.3,0.3-0.5s0.2-0.4,0.3-0.5
				c0,0,0.1,0.1,0.2,0.1c0.1,0,0.1,0.1,0.2,0.1c0,0,0.1,0,0-0.1v-0.1l0.1,0.1l0.1,0.1c0.1,0,0.1,0,0,0l0,0c0,0,0.1,0,0.2,0.1
				s0.2,0.2,0.4,0.2c0.1,0.1,0.1,0.2,0.2,0.4s0.1,0.3,0.1,0.4c0,0-0.1,0.2-0.2,0.3c-0.1,0.2-0.2,0.4-0.2,0.5
				c-0.1,0.2-0.2,0.4-0.3,0.7c-0.1,0.3-0.1,0.5-0.2,0.8l0,0l-0.1,0.1c0,0.2-0.1,0.5-0.1,0.7c0,0.3-0.1,0.4-0.1,0.5s0,0.2,0.1,0.2
				h0.1c0.1,0,0.2,0,0.5-0.1s0.5-0.1,0.7-0.2s0.4-0.1,0.6-0.3s0.4-0.2,0.6-0.3L187.7,69.4z"/>
			<path class="st1" d="M195.8,69.5c-0.1,0.1-0.1,0.3-0.1,0.4V70v0.1l-0.1,0.1l-0.1,0.1c0,0,0.1,0,0.2,0l0,0c0,0-0.1,0.1-0.1,0
				c0,0-0.1,0.1-0.1,0.2s0,0.1-0.1,0.2c0,0.1,0,0.1,0,0.2s0,0.1,0,0.2c-0.1,0.1-0.1,0.1-0.2,0.1c-0.1,0-0.1,0.1-0.1,0.2
				c-0.1,0.1-0.1,0.2-0.3,0.2c-0.1,0.1-0.2,0.2-0.3,0.2s-0.1,0.1-0.2,0.2c-0.1,0.1-0.1,0.2-0.2,0.2c-0.1,0-0.3,0-0.4,0
				c-0.2,0-0.3,0-0.3,0c-0.1,0-0.1,0-0.3-0.1c-0.1,0-0.3-0.1-0.4-0.2c-0.1-0.1-0.3-0.2-0.4-0.2c-0.1-0.1-0.2-0.1-0.2-0.2
				c-0.1-0.3-0.3-0.6-0.4-0.9c-0.1-0.3-0.2-0.6-0.2-0.9c-0.1-0.2-0.1-0.5-0.1-0.8s0-0.7,0-0.9l0,0l0,0c-0.3,0.3-0.5,0.7-0.9,1.1
				c-0.3,0.4-0.6,0.8-0.9,1.1v0.1c-0.1,0.2-0.2,0.3-0.3,0.5s-0.2,0.3-0.3,0.5c-0.1,0.1-0.2,0.3-0.4,0.4s-0.3,0.3-0.3,0.3
				c-0.1,0-0.1,0-0.2-0.1s-0.1-0.1-0.2-0.1c-0.1,0-0.1,0-0.1,0s0,0-0.1,0s-0.2,0-0.3-0.1s-0.1-0.2-0.2-0.3c0-0.1-0.1-0.2-0.1-0.4
				c0-0.1,0-0.2-0.1-0.2l-0.1-0.1c0-0.1-0.1-0.1-0.1-0.2s0-0.2,0.1-0.5s0.1-0.5,0.1-0.7c0.1-0.1,0.1-0.2,0.1-0.3
				c0-0.1,0.1-0.2,0.1-0.3c0-0.1,0.1-0.3,0.1-0.5s0-0.3,0.1-0.5c0.2-0.5,0.4-1.2,0.7-1.9s0.5-1.5,0.8-2.2c0,0,0-0.1,0-0.2
				s0-0.2,0-0.2c0.1-0.1,0.2-0.2,0.3-0.3s0.2-0.2,0.3-0.2c0.1,0.1,0.1,0.1,0.2,0.2c0.1,0.1,0.1,0.1,0.2,0.2c0,0,0.1-0.1,0.1-0.2
				s0-0.1,0-0.2c0.1,0.1,0.1,0.1,0.2,0.2c0.1,0.1,0.2,0.1,0.3,0.1c0,0.1,0,0.1,0,0.2s0,0.1,0,0.2l0,0c0,0,0,0,0.1,0c0,0,0,0,0.1,0
				v0.2c0,0.1,0,0.1-0.1,0.2s-0.1,0.2-0.1,0.2c0,0.2-0.1,0.4-0.1,0.6s-0.1,0.4-0.1,0.6c0,0.1,0,0.1,0,0.2l-0.1,0.1
				c-0.1,0.3-0.1,0.6-0.1,0.9c0.1-0.1,0.2-0.2,0.2-0.3c0.1-0.1,0.2-0.3,0.3-0.4s0.2-0.2,0.3-0.4c0.1-0.1,0.2-0.2,0.3-0.2
				s0.2-0.1,0.3-0.1s0.2,0,0.3-0.1c0.1,0.1,0.1,0.1,0.1,0.1l0.1,0.1c0.1,0,0.1-0.1,0.1-0.1s0.1,0,0.2-0.1c0.1,0,0.1,0,0.2,0.1
				c0.1,0.1,0.2,0.2,0.3,0.2l0,0c0,0,0,0,0,0.1c0,0,0,0,0.1,0.1h0.1c0.1,0.2,0.2,0.4,0.3,0.5s0.1,0.2,0.1,0.2v0.1c0,0,0,0.1,0,0.3
				c0,0,0,0.1,0,0.3c0,0.2,0,0.4,0,0.7s0,0.5,0,0.8s0,0.5,0,0.7s0,0.3,0,0.5s0,0.4,0,0.6c0.1,0,0.2,0.1,0.3,0c0.1,0,0.2,0,0.3-0.1
				s0.3-0.1,0.4-0.2c0.1-0.1,0.3-0.2,0.4-0.2c0.1-0.1,0.2-0.1,0.3-0.2l0,0c0,0-0.1,0,0,0l0,0h0.1c0.1,0,0.2-0.1,0.3-0.2
				C195.5,69.7,195.6,69.6,195.8,69.5z M192.5,65.5L192.5,65.5l-0.2-0.1v0.1H192.5z"/>
			<path class="st1" d="M202.6,65C202.6,65.1,202.5,65.1,202.6,65c-0.1,0.1-0.1,0.2-0.2,0.2c0,0.1,0,0.1,0.1,0.1
				c0,0.1-0.1,0.1-0.1,0.2c-0.1,0,0,0.1,0.1,0.2c-0.1,0.1-0.2,0.1-0.3,0.2s-0.2,0.1-0.3,0.2c0,0,0,0.1,0.1,0.1c0,0,0.1,0,0.1,0.1
				c-0.1,0.2-0.2,0.3-0.4,0.4s-0.4,0.1-0.6,0.2c0,0.1-0.1,0.2-0.2,0.3s-0.2,0.2-0.2,0.2c-0.1,0-0.1,0,0,0c0,0,0,0,0-0.1
				c-0.1,0-0.1,0.1-0.1,0.2c-0.2,0-0.4,0.1-0.7,0.2c-0.2,0.1-0.5,0.2-0.7,0.2l0,0c0,0,0,0,0,0.1l0,0c0,0,0,0-0.1,0
				c0,0-0.2,0-0.4,0.1s-0.4,0.1-0.5,0.2c0,0,0,0-0.1,0.1l-0.1,0.1c-0.1,0-0.2,0.1-0.3,0.1c-0.1,0.1-0.2,0.1-0.3,0.2
				c0,0.2-0.1,0.4-0.1,0.6s-0.1,0.4-0.1,0.6s-0.1,0.4-0.1,0.5c0,0.2,0,0.2,0,0.3s0,0.1,0,0.2s0,0.2,0.1,0.3c0,0.1,0.1,0.2,0.1,0.3
				c0,0.1,0,0.2,0,0.2c0,0.1,0,0.1-0.1,0.2s-0.1,0.2-0.1,0.2H197c-0.1,0-0.1,0-0.2,0c-0.1,0-0.1,0-0.1-0.1s-0.1-0.1-0.1-0.2
				c-0.3-0.3-0.5-0.5-0.5-0.8s-0.1-0.5-0.1-0.8c0-0.1,0-0.4,0-0.8s0.1-0.8,0-1.3c0,0,0-0.1-0.1-0.2s-0.1-0.2-0.2-0.3
				s-0.1-0.2-0.2-0.3c-0.1-0.1-0.1-0.1-0.1-0.2s0-0.2,0-0.3c0-0.2,0-0.3,0-0.5c0.1-0.1,0.1-0.1,0.1-0.1h0.1h0.1c0.1,0,0.1,0,0.1,0
				s0,0,0.1,0s0.1,0,0.2-0.1c0.1-0.1,0.1-0.1,0.1-0.2c0.1-0.1,0.1-0.4,0.2-0.6c0.1-0.3,0.1-0.6,0.2-0.9c0.1-0.3,0.1-0.6,0.2-1
				c0.1-0.3,0.1-0.6,0.2-0.8c0.1-0.4,0.2-0.9,0.4-1.3c0.1-0.4,0.3-0.9,0.4-1.3c0.1-0.2,0.1-0.4,0.2-0.7c0.1-0.3,0.2-0.5,0.2-0.8
				c0.1-0.2,0.1-0.4,0.2-0.7c0.1-0.3,0.2-0.5,0.4-0.6c0,0,0.1-0.1,0.2-0.1c0.1,0,0.1,0,0.2,0c0.1,0,0.2,0.1,0.2,0.2
				c0.1,0.1,0.1,0.2,0.2,0.2s0.1,0,0.1,0h0.1h-0.1v0.1c0,0,0,0.1,0.1,0.2c0,0.1,0.1,0.2,0.1,0.3c0.1,0.1,0.1,0.2,0.1,0.3
				s0,0.2,0,0.2c0,0.1,0,0.2-0.1,0.4c0,0.2-0.1,0.3-0.2,0.5c0,0.1,0.1,0.2,0.1,0.3c-0.2,0.7-0.4,1.3-0.6,2c-0.2,0.7-0.4,1.3-0.6,1.9
				c0,0.3-0.1,0.5-0.2,0.9c-0.1,0.3-0.1,0.6-0.2,0.9v0.1c0.1,0,0.1,0.1,0.2,0c0.1,0,0.1,0,0.2,0c0.1,0,0.2-0.1,0.4-0.1
				c0.1,0,0.1,0,0.1,0s0,0,0.1,0s0.1,0,0.2,0c0.1,0,0.2-0.1,0.3-0.1c0.5-0.1,0.9-0.1,1.4-0.2C201.4,65.1,201.9,65.1,202.6,65z"/>
			<path class="st1" d="M215.9,57L215.9,57c0,0.3,0,0.5,0,0.8c-0.1,0.3-0.1,0.5-0.1,0.7c-0.1,0.4-0.2,0.8-0.3,1.3s-0.3,1-0.4,1.5
				c-0.1,0.5-0.3,1.1-0.4,1.6c-0.2,0.5-0.3,1.1-0.4,1.5c-0.1,0.3-0.1,0.5-0.3,0.8c-0.1,0.3-0.2,0.6-0.3,0.9l0.1,0.1
				c0.1-0.1,0.2-0.2,0.4-0.2s0.3-0.1,0.4-0.1c0.3,0,0.5,0,0.8,0.1s0.5,0.2,0.7,0.3c0.2,0.1,0.4,0.3,0.6,0.6c0.2,0.2,0.2,0.5,0.3,0.7
				c0,0.1,0,0.2-0.1,0.5c0,0.3-0.1,0.5-0.1,0.7c-0.1,0.1-0.1,0.3-0.2,0.6c-0.1,0.3-0.2,0.5-0.3,0.7c-0.1,0.1-0.1,0.2-0.3,0.4
				s-0.3,0.4-0.4,0.7c-0.2,0.2-0.3,0.4-0.4,0.6c-0.1,0.2-0.2,0.3-0.3,0.3s-0.1,0-0.1,0s0,0-0.1,0s-0.1,0.1-0.2,0.2s-0.2,0.2-0.3,0.2
				l0,0v-0.1c-0.1,0-0.1,0-0.2-0.1s-0.1,0-0.2,0c-0.1,0-0.1,0-0.1,0s0,0-0.1,0s-0.1,0-0.2-0.1l-0.1-0.1l-0.1-0.1
				c-0.1-0.1-0.2-0.2-0.2-0.3c-0.1-0.1-0.1-0.2-0.2-0.3c-0.1-0.1-0.1-0.2-0.1-0.3c0-0.1,0-0.2,0.1-0.4c0.1-0.2,0.1-0.3,0.2-0.3
				c0.1,0.1,0.2,0.1,0.2,0.2s0,0.1,0.1,0.2s0,0.1,0.1,0.1c0,0,0.1,0,0.2,0c0.1,0,0.1-0.1,0.2-0.2c0.1-0.1,0.2-0.3,0.3-0.4
				c0.1-0.2,0.2-0.3,0.3-0.5s0.2-0.3,0.2-0.4c0.1-0.3,0.3-0.6,0.4-0.9c0.1-0.4,0.2-0.7,0.3-0.9v-0.3c-0.1,0-0.1,0.1-0.2,0.2
				c0,0.1-0.1,0.2-0.2,0.2c-0.2,0.1-0.3,0.2-0.4,0.3c-0.1,0.1-0.2,0.2-0.2,0.4h-0.1c0,0,0,0-0.1,0c0,0.1,0,0.2-0.1,0.3
				c-0.1,0.1-0.2,0.3-0.3,0.4s-0.2,0.3-0.3,0.4s-0.2,0.3-0.2,0.4c0.1,0.1,0.1,0.1,0.2,0c-0.1,0.1-0.2,0.2-0.3,0.3
				c-0.1,0.1-0.2,0.2-0.2,0.2c-0.1,0-0.2,0-0.3,0c-0.2,0-0.3,0-0.3,0c-0.1,0-0.2-0.1-0.3-0.2s-0.2-0.3-0.3-0.5s-0.2-0.4-0.3-0.7
				c0-0.1,0-0.3,0.1-0.5c0.1-0.3,0.1-0.5,0.2-0.8c0.1-0.3,0.1-0.5,0.2-0.7c0.1-0.2,0.1-0.3,0.1-0.3c0.2-0.7,0.4-1.4,0.6-2.2
				c0.2-0.8,0.5-1.6,0.7-2.3c0.2-0.8,0.5-1.6,0.7-2.3s0.4-1.4,0.6-2c0.1-0.2,0.1-0.4,0.2-0.7c0.1-0.3,0.2-0.5,0.3-0.7
				c0.1,0,0.2-0.1,0.3-0.1s0.2,0,0.2,0s0.1,0,0.2,0.1c0.1,0.1,0.1,0.2,0.2,0.2c0.1,0.1,0.2,0.2,0.3,0.4C216,56.9,216,57,215.9,57z"
				/>
			<path class="st1" d="M223.3,67.3c0,0.7-0.3,1.4-0.8,2.2c-0.5,0.7-1.1,1.4-1.8,2l-0.1,0.1c0,0.1,0,0.1-0.1,0.2
				c-0.5,0.3-0.9,0.4-1.2,0.4s-0.6-0.1-0.7-0.2c-0.2-0.2-0.4-0.3-0.6-0.5c-0.1-0.1-0.1-0.2-0.2-0.3c-0.1-0.2-0.1-0.3-0.3-0.3
				c0-0.1-0.1-0.3-0.1-0.4c0-0.2-0.1-0.3-0.1-0.3c0-0.2,0-0.5,0.1-0.8s0.2-0.6,0.3-0.9s0.2-0.5,0.3-0.7s0.2-0.4,0.2-0.4v-0.1
				c0-0.1,0-0.1,0.1-0.2s0.1-0.2,0.2-0.4c0.1-0.1,0.2-0.2,0.2-0.4h0.1c0,0,0,0,0.1,0s0.1,0,0.1-0.1c0,0,0-0.1,0.1-0.1
				c0.1-0.1,0.1-0.2,0.2-0.2c0.1-0.1,0.2-0.1,0.3-0.2c0-0.1,0.1-0.1,0.1-0.2s0-0.1,0.1-0.2h-0.1c-0.1,0-0.1,0-0.1,0.1
				c0-0.1,0-0.1,0-0.1s-0.1,0.1-0.1,0.2c0-0.1,0-0.1-0.1-0.1l0,0c0,0,0,0,0.1-0.1c0-0.2,0-0.3,0.1-0.5c0.1-0.1,0.3-0.2,0.5-0.3
				c0.2-0.1,0.4-0.2,0.5-0.2c0.2-0.1,0.3-0.1,0.3-0.2c0.1,0.1,0.1,0.1,0.2,0.1c0.1,0,0.2,0,0.3,0s0.1,0.1,0.3,0.3
				c0.1,0.1,0.2,0.2,0.3,0.3c0,0,0,0,0,0.1s0.1,0.1,0.1,0.1h0.1h0.1c0.3,0.4,0.6,0.8,0.7,1.2C223.2,66.5,223.3,66.9,223.3,67.3z
				 M221.6,66.7c0-0.1,0-0.2-0.1-0.3s-0.1-0.3-0.2-0.4c-0.1,0.2-0.3,0.4-0.4,0.7c-0.2,0.2-0.3,0.4-0.4,0.6c-0.1,0.2-0.2,0.4-0.4,0.7
				c-0.1,0.3-0.3,0.5-0.4,0.8s-0.2,0.5-0.3,0.7s-0.1,0.3-0.1,0.3V70c0.1-0.1,0.3-0.2,0.5-0.4c0.2-0.2,0.3-0.2,0.3-0.2
				c0.1,0,0.1,0,0,0.1c-0.1,0,0,0.1,0,0.1c0.1,0,0.1-0.1,0.2-0.2c0.1-0.1,0.2-0.3,0.3-0.5s0.2-0.3,0.3-0.5c0.1-0.1,0.2-0.2,0.2-0.3
				c0,0,0.1-0.1,0.1-0.3c0.1-0.1,0.1-0.3,0.2-0.5c0.1-0.2,0.1-0.3,0.1-0.4C221.6,66.7,221.6,66.7,221.6,66.7z M221.2,65.8v-0.3h-0.1
				L221.2,65.8L221.2,65.8z"/>
			<path class="st1" d="M232.1,69.4c-0.1,0-0.2,0.1-0.3,0.3c0,0.1,0.1,0.1,0.1,0.2s0.1,0.1,0.1,0.2c-0.1,0.1-0.2,0.3-0.3,0.5
				c0,0.1,0,0.1,0,0.1c-0.1,0.1-0.2,0.2-0.3,0.3c0,0,0.1,0.1,0.1,0c0,0,0.1,0,0.1-0.1V71h-0.1c-0.1,0-0.1,0-0.1,0s0,0,0-0.1V71
				c0,0,0,0.1-0.1,0.1l-0.1,0.1c-0.1,0.1-0.1,0.1-0.2,0.2c-0.1,0.1-0.3,0.2-0.5,0.3s-0.3,0.2-0.4,0.2c-0.2,0-0.5,0-0.7-0.1
				c-0.3-0.1-0.5-0.1-0.7-0.2c0,0-0.1-0.1-0.2-0.2c-0.1-0.1-0.2-0.2-0.2-0.2c-0.1-0.2-0.2-0.5-0.3-0.7c-0.1-0.3-0.2-0.5-0.3-0.7
				c0-0.1-0.1-0.2,0-0.3c0-0.1,0-0.2,0-0.3c0-0.1,0-0.2-0.1-0.3c-0.4,0.4-0.7,0.9-1.1,1.3c-0.4,0.5-0.7,1-1,1.5c0,0-0.1,0.1-0.2,0.1
				c-0.1,0-0.1,0.1-0.2,0.1l0,0c0,0,0,0,0.1,0.1c-0.1,0-0.2,0-0.3,0s-0.2,0-0.3,0c0-0.1-0.1-0.2-0.2-0.2c-0.1-0.1-0.2-0.1-0.3-0.2
				s-0.1-0.1-0.2-0.2c-0.1-0.1-0.1-0.2-0.1-0.3c0-0.1-0.1-0.2-0.1-0.4c0-0.2,0-0.3,0-0.3c0-0.5,0-0.9,0.1-1.2
				c0.1-0.3,0.2-0.7,0.3-1.2c0.1-0.1,0.2-0.2,0.2-0.3c0.1-0.1,0.1-0.2,0.1-0.4c0-0.1,0-0.1,0-0.2s0-0.1,0-0.2s0.1-0.2,0.1-0.2
				c0.1-0.1,0.1-0.1,0.1-0.1c0.1-0.1,0.1-0.1,0.1-0.2s0-0.2,0.1-0.3c0,0,0-0.1,0.1-0.1c0,0,0.1,0,0.1-0.1v-0.1c0,0,0,0,0-0.1
				c0.1-0.2,0.2-0.4,0.3-0.6s0.2-0.4,0.3-0.6s0.2-0.4,0.4-0.5s0.3-0.2,0.6-0.2c0.1,0,0.1,0,0.2,0c0.1,0,0.1,0,0.2,0
				c0,0.1,0.1,0.2,0.1,0.2c0.1,0.1,0.1,0.2,0.2,0.2v0.1c0,0,0,0.1,0,0.2c0,0.3-0.1,0.6-0.3,1s-0.4,0.7-0.5,1.1
				c-0.1,0.2-0.2,0.4-0.3,0.6s-0.2,0.4-0.3,0.6s-0.2,0.4-0.3,0.6s-0.2,0.5-0.3,0.7v0.1v0.1c-0.1,0.1-0.1,0.2-0.2,0.4
				S225,70,225,70.1v0.1l0,0c0.7-0.8,1.3-1.5,1.9-2.2c0.6-0.7,1.1-1.4,1.5-2.2c0.1-0.1,0.2-0.3,0.3-0.5s0.2-0.4,0.3-0.5l0.1,0.1
				c0.1,0,0.1,0.1,0.2,0.1c0,0,0.1,0,0-0.1v-0.1l0.1,0.1l0.1,0.1c0.1,0,0.1,0,0,0l0,0c0,0,0.1,0,0.2,0.1c0.1,0.1,0.2,0.2,0.4,0.2
				c0.1,0.1,0.1,0.2,0.2,0.4c0.1,0.2,0.1,0.3,0.1,0.4c0,0-0.1,0.2-0.2,0.3c-0.1,0.2-0.2,0.4-0.2,0.5c-0.1,0.2-0.2,0.4-0.3,0.7
				s-0.1,0.5-0.2,0.8l0,0l-0.1,0.1c0,0.2-0.1,0.5-0.1,0.7c0,0.3-0.1,0.4-0.1,0.5s0,0.2,0.1,0.2h0.1c0.1,0,0.2,0,0.5-0.1
				s0.5-0.1,0.7-0.2s0.4-0.1,0.6-0.3s0.4-0.2,0.6-0.3L232.1,69.4z"/>
			<path class="st1" d="M241.4,66.7c0,0.5,0,0.9-0.1,1.4c-0.1,0.4-0.2,0.9-0.3,1.3c-0.1,0.3-0.2,0.7-0.3,1s-0.3,0.6-0.4,0.8
				c-0.1,0.1-0.2,0.2-0.3,0.4s-0.2,0.2-0.3,0.3c-0.1,0.1-0.2,0.1-0.3,0.1s-0.2-0.1-0.5-0.2s-0.5-0.2-0.6-0.3
				c-0.1-0.1-0.2-0.2-0.3-0.4c-0.1-0.2-0.2-0.5-0.2-0.7c-0.1-0.2-0.1-0.5-0.2-0.7c-0.1-0.3-0.2-0.5-0.2-0.8
				c-0.1-0.3-0.1-0.6-0.2-0.9c-0.1,0.1-0.1,0.1-0.2,0.2c-0.1,0.1-0.1,0.2-0.2,0.3c0,0.1-0.1,0.1-0.2,0.2c-0.1,0.1-0.1,0.2-0.1,0.3
				h-0.1h-0.1c-0.3,0.4-0.6,0.7-0.9,1c-0.3,0.3-0.6,0.6-0.8,0.9c-0.1,0.2-0.3,0.3-0.6,0.5c-0.2,0.2-0.4,0.3-0.6,0.4V72h-0.7
				c-0.1,0-0.2,0-0.3-0.1s-0.3-0.1-0.3-0.2c-0.1,0-0.1-0.1-0.2-0.2c-0.1-0.1-0.1-0.2-0.2-0.4c-0.1-0.1-0.1-0.3-0.2-0.4
				c0-0.1,0-0.2,0-0.3c0-0.3,0-0.6,0-1.1c0-0.4,0.1-0.8,0.3-1.3c0.2-0.4,0.4-0.8,0.7-1.2c0.2-0.4,0.4-0.7,0.6-0.9
				c0.1-0.3,0.3-0.6,0.6-1s0.6-0.8,0.8-1.2c0.2,0,0.4,0,0.5,0s0.3,0.1,0.5,0.3c0.1,0.1,0.2,0.2,0.2,0.3c0.1,0.2,0.1,0.3,0.2,0.4
				c-0.1,0.1-0.1,0.1-0.2,0.2c0,0.1-0.1,0.2-0.2,0.3v0.2c-0.2,0.3-0.4,0.6-0.6,0.9c-0.2,0.3-0.4,0.7-0.7,1.1
				c-0.2,0.4-0.4,0.7-0.6,1.1c-0.2,0.4-0.2,0.7,0,0.9v0.1c0.1-0.1,0.2-0.2,0.3-0.3c0.1-0.1,0.3-0.3,0.4-0.5c0.1-0.2,0.3-0.4,0.4-0.6
				c0.2-0.2,0.3-0.3,0.4-0.5c0.3-0.5,0.5-0.8,0.6-0.9s0.2-0.3,0.2-0.3c0.1-0.1,0.2-0.1,0.3-0.2c0.1,0,0.3,0,0.5,0
				c0.1,0,0.1,0,0.2,0.1c0.1,0.1,0.1,0.1,0.2,0.2c0.3,0.1,0.5,0.2,0.7,0.3c0.2,0.2,0.4,0.4,0.4,0.8c0.1,0.4,0.2,0.7,0.3,1
				s0.2,0.5,0.2,0.7c0.2-0.2,0.3-0.5,0.4-0.7c0.1-0.3,0.2-0.6,0.3-0.8c0.1-0.3,0.1-0.5,0.2-0.8c0.1-0.3,0.1-0.5,0.1-0.7s0-0.4,0-0.7
				c0-0.3,0-0.5,0-0.8c0-0.1,0-0.2,0-0.4c0-0.2,0-0.3,0-0.5c0,0,0,0.1,0.1,0.2l0.1,0.1c0.1,0,0.1,0,0.1,0.1c0,0,0,0,0,0.1
				c0,0,0,0.1,0.1,0.1c0.1-0.1,0.1-0.1,0.2-0.1v0.2c0.1,0.1,0.3,0.1,0.4,0.1c0.2,0.3,0.3,0.6,0.4,1
				C241.3,66.1,241.4,66.4,241.4,66.7z"/>
			<path class="st1" d="M247.1,70.2c-0.1,0-0.2,0.1-0.3,0.1s-0.1,0.1-0.2,0.1c0,0.1,0.1,0.2,0.2,0.2c0,0.1-0.1,0.1-0.1,0.2
				s-0.1,0.2-0.1,0.3c-0.2,0-0.3,0-0.4,0.2c-0.1,0.2-0.1,0.3-0.1,0.5c-0.1,0-0.2,0.1-0.4,0.1c-0.1,0-0.3,0-0.4,0c-0.1,0-0.1,0,0,0.1
				h0.1c-0.1,0-0.2,0-0.4,0.1c-0.1,0.1-0.3,0.1-0.4,0.1v0.1c0,0,0,0-0.1,0s-0.1,0-0.2-0.1s-0.2-0.1-0.3-0.1s-0.2,0-0.2,0
				c-0.1,0-0.1,0.1-0.1,0.2l-0.2-0.3c-0.3-0.1-0.5-0.2-0.6-0.3c-0.1-0.1-0.3-0.3-0.6-0.6c-0.1-0.1-0.2-0.1-0.2-0.1l-0.1-0.1
				c0-0.1-0.1-0.2-0.1-0.3c0-0.2-0.1-0.4-0.2-0.9c-0.1-0.4,0-0.7,0-0.9c0.1-0.2,0.1-0.4,0.1-0.6s0.1-0.5,0.3-0.8
				c0.1-0.3,0.3-0.7,0.4-1c0.1-0.2,0.2-0.3,0.3-0.6c0.1-0.2,0.2-0.4,0.4-0.7c0.1-0.1,0.2-0.2,0.3-0.3c0.1-0.1,0.2-0.3,0.3-0.4
				s0.3-0.3,0.3-0.4s0.2-0.2,0.4-0.3c0.1,0,0.2-0.1,0.4-0.2c0.1-0.1,0.2-0.2,0.2-0.3l0,0c0,0,0,0.1,0.1,0.1s0.1,0,0.1,0s0,0,0.1,0
				s0.1,0,0.2,0.1c0.1,0.1,0.2,0.1,0.3,0.1c0,0.1,0,0.2,0,0.3s0,0.1,0.1,0.1s0.1,0,0.1,0s0,0,0.1,0s0.1,0,0.1,0.1s0.1,0.1,0.1,0.1
				c0,0.2,0,0.3,0,0.4s0.1,0.1,0.1,0.2c0.1,0,0.1,0.1,0.1,0.1s0.1,0.1,0.1,0.2c0,0,0,0.1,0,0.2s-0.1,0.3-0.1,0.4s-0.1,0.3-0.1,0.5
				s-0.1,0.3-0.1,0.4c-0.1,0.2-0.2,0.4-0.4,0.6c-0.2,0.3-0.4,0.5-0.5,0.7c-0.2,0.2-0.3,0.4-0.5,0.6s-0.4,0.4-0.6,0.6
				c-0.2,0.2-0.3,0.4-0.5,0.5c-0.1,0.1-0.2,0.2-0.2,0.3c0,0.1,0.1,0.2,0.2,0.3s0.3,0.2,0.4,0.2c0.1,0,0.2,0.1,0.3,0.1s0.2,0,0.3,0
				s0.2,0,0.3-0.1s0.2,0,0.4,0c0.3-0.1,0.5-0.2,0.8-0.2c0.2-0.1,0.5-0.1,0.7-0.2C247,70.2,247,70.2,247.1,70.2z"/>
			<path class="st1" d="M255.7,69.5c-0.1,0.1-0.1,0.3-0.1,0.4V70v0.1l-0.1,0.1l-0.1,0.1c0,0,0.1,0,0.2,0l0,0c0,0-0.1,0.1-0.1,0
				c0,0-0.1,0.1-0.1,0.2s0,0.1-0.1,0.2c0,0.1,0,0.1,0,0.2s0,0.1,0,0.2c-0.1,0.1-0.1,0.1-0.2,0.1c-0.1,0-0.1,0.1-0.1,0.2
				c-0.1,0.1-0.1,0.2-0.3,0.2c-0.1,0.1-0.2,0.2-0.3,0.2s-0.1,0.1-0.2,0.2c-0.1,0.1-0.1,0.2-0.1,0.2c-0.1,0-0.3,0-0.4,0
				c-0.2,0-0.3,0-0.3,0c-0.1,0-0.1,0-0.3-0.1s-0.3-0.1-0.4-0.2c-0.1-0.1-0.3-0.2-0.4-0.2c-0.1-0.1-0.2-0.1-0.2-0.2
				c-0.1-0.3-0.3-0.6-0.4-0.9c-0.1-0.3-0.2-0.6-0.2-0.9c-0.1-0.2-0.1-0.5-0.1-0.8s0-0.7,0-0.9l0,0l0,0c-0.3,0.3-0.5,0.7-0.9,1.1
				c-0.3,0.4-0.6,0.8-0.9,1.1v0.1c-0.1,0.2-0.2,0.3-0.3,0.5s-0.2,0.3-0.3,0.5c-0.1,0.1-0.2,0.3-0.4,0.4s-0.3,0.3-0.3,0.3
				c-0.1,0-0.1,0-0.2-0.1c-0.1-0.1-0.1-0.1-0.2-0.1c-0.1,0-0.1,0-0.1,0l0,0c-0.1,0-0.2,0-0.3-0.1s-0.1-0.2-0.2-0.3
				c0-0.1-0.1-0.2-0.1-0.4c0-0.1,0-0.2-0.1-0.2l-0.1-0.1c0-0.1-0.1-0.1-0.1-0.2s0-0.2,0.1-0.5s0.1-0.5,0.1-0.7
				c0.1-0.1,0.1-0.2,0.1-0.3c0-0.1,0.1-0.2,0.1-0.3c0-0.1,0.1-0.3,0.1-0.5s0-0.3,0.1-0.5c0.2-0.5,0.4-1.2,0.7-1.9s0.5-1.5,0.8-2.2
				c0,0,0-0.1,0-0.2s0-0.2,0-0.2c0.1-0.1,0.2-0.2,0.3-0.3s0.2-0.2,0.3-0.2c0.1,0.1,0.1,0.1,0.2,0.2s0.1,0.1,0.2,0.2
				c0,0,0.1-0.1,0.1-0.2s0-0.1,0-0.2c0.1,0.1,0.1,0.1,0.2,0.2c0.1,0.1,0.2,0.1,0.3,0.1c0,0.1,0,0.1,0,0.2s0,0.1,0,0.2l0,0l0,0
				c0,0,0,0,0.1,0v0.2c0,0.1,0,0.1,0,0.2s-0.1,0.2-0.1,0.2c0,0.2-0.1,0.4-0.1,0.6s-0.1,0.4-0.1,0.6c0,0.1,0,0.1,0,0.2l-0.1,0.1
				c-0.1,0.3-0.1,0.6-0.1,0.9c0.1-0.1,0.2-0.2,0.2-0.3c0.1-0.1,0.2-0.3,0.3-0.4s0.2-0.2,0.3-0.4c0.1-0.1,0.2-0.2,0.3-0.2
				s0.2-0.1,0.3-0.1s0.2,0,0.3-0.1C252,65,252,65,252,65l0.1,0.1c0.1,0,0.1-0.1,0.1-0.1s0.1,0,0.1-0.1c0.1,0,0.1,0,0.2,0.1
				c0.1,0.1,0.2,0.2,0.3,0.2l0,0c0,0,0,0,0,0.1c0,0,0,0,0,0.1h0.1c0.1,0.2,0.2,0.4,0.3,0.5s0.1,0.2,0.1,0.2c0,0.1,0,0.1,0,0.1
				s0,0.1,0,0.3c0,0,0,0.1,0,0.3c0,0.2,0,0.4,0,0.7c0,0.3,0,0.5,0,0.8s0,0.5,0,0.7s0,0.3,0,0.5s0,0.4,0,0.6c0.1,0,0.2,0.1,0.3,0
				c0.1,0,0.2,0,0.3-0.1s0.3-0.1,0.4-0.2c0.1-0.1,0.3-0.2,0.4-0.2c0.1-0.1,0.2-0.1,0.3-0.2l0,0c0,0-0.1,0,0,0l0,0h0.1
				c0.1,0,0.2-0.1,0.3-0.2C255.4,69.7,255.6,69.6,255.7,69.5z M252.4,65.5L252.4,65.5l-0.2-0.1v0.1H252.4z"/>
		</g>
	</g>
</g>
<g>
	<path class="st3" d="M73.6,8c-0.1-0.3,0-0.6,0.4-0.6h0.9c0.2,0,0.3,0.1,0.4,0.3l5.7,12.7H81l5.7-12.7c0-0.1,0.2-0.3,0.4-0.3H88
		c0.3,0,0.5,0.3,0.4,0.6l-6.9,15.3c-0.1,0.1-0.2,0.3-0.4,0.3h-0.2c-0.2,0-0.3-0.1-0.4-0.3L73.6,8z"/>
	<path class="st3" d="M88.4,22.8l6.9-15.3c0.1-0.1,0.2-0.3,0.4-0.3H96c0.2,0,0.3,0.1,0.4,0.3l6.9,15.3c0.1,0.3,0,0.6-0.4,0.6h-0.9
		c-0.2,0-0.3-0.1-0.4-0.3l-1.7-3.8h-8.1l-1.7,3.8c0,0.1-0.2,0.3-0.4,0.3h-0.9C88.5,23.4,88.3,23.1,88.4,22.8 M99.2,18
		c-1.1-2.5-2.2-5-3.3-7.5h-0.2L92.4,18H99.2z"/>
	<path class="st3" d="M106.4,7.6c0-0.2,0.2-0.4,0.4-0.4h0.6L117.7,20h0V7.9c0-0.2,0.2-0.4,0.4-0.4h0.8c0.2,0,0.4,0.2,0.4,0.4v15.3
		c0,0.2-0.2,0.4-0.4,0.4h-0.4l-10.4-13h0v12.4c0,0.2-0.2,0.4-0.4,0.4h-0.8c-0.2,0-0.4-0.2-0.4-0.4V7.6z"/>
	<path class="st3" d="M130.4,7.9c0-0.2,0.2-0.4,0.4-0.4h5.1c4.4,0,8,3.6,8,7.9c0,4.4-3.6,8-8,8h-5.1c-0.2,0-0.4-0.2-0.4-0.4V7.9z
		 M135.6,21.8c3.7,0,6.4-2.7,6.4-6.4c0-3.7-2.7-6.4-6.4-6.4h-3.4v12.8H135.6z"/>
	<path class="st3" d="M148.1,7.9c0-0.2,0.2-0.4,0.4-0.4h9c0.3,0,0.4,0.2,0.4,0.4v0.7c0,0.2-0.2,0.4-0.4,0.4h-7.6v5.6h6.5
		c0.2,0,0.4,0.2,0.4,0.4v0.7c0,0.3-0.2,0.4-0.4,0.4h-6.5v5.8h7.6c0.3,0,0.4,0.2,0.4,0.4v0.7c0,0.2-0.2,0.4-0.4,0.4h-9
		c-0.2,0-0.4-0.2-0.4-0.4V7.9z"/>
	<path class="st3" d="M162.3,7.9c0-0.2,0.2-0.4,0.4-0.4h5.9c2.7,0,5,2.1,5,4.8c0,2.1-1.4,3.8-3.4,4.6l3.1,5.8c0.2,0.3,0,0.7-0.4,0.7
		h-1.2c-0.2,0-0.3-0.1-0.4-0.2l-3-6H164v5.8c0,0.2-0.2,0.4-0.4,0.4h-0.9c-0.3,0-0.4-0.2-0.4-0.4V7.9z M168.5,15.6
		c1.8,0,3.3-1.5,3.3-3.3c0-1.7-1.5-3.2-3.3-3.2h-4.4v6.5H168.5z"/>
	<path class="st3" d="M182,22.5l6.8-12.2v-0.1h-5.7c-0.2,0-0.4-0.2-0.4-0.4V7.9c0-0.2,0.2-0.4,0.4-0.4h9.5c0.2,0,0.4,0.2,0.4,0.4
		v0.3l-6.7,12.4v0h5.8c0.3,0,0.4,0.2,0.4,0.4v1.9c0,0.2-0.2,0.4-0.4,0.4h-9.7c-0.2,0-0.4-0.2-0.4-0.4V22.5z"/>
	<path class="st3" d="M196.4,7.9c0-0.2,0.2-0.4,0.4-0.4h9.3c0.3,0,0.4,0.2,0.4,0.4v1.9c0,0.2-0.2,0.4-0.4,0.4h-6.7v3.7h5.6
		c0.2,0,0.4,0.2,0.4,0.4v1.9c0,0.2-0.2,0.4-0.4,0.4h-5.6v4h6.7c0.3,0,0.4,0.2,0.4,0.4v1.9c0,0.2-0.2,0.4-0.4,0.4h-9.3
		c-0.2,0-0.4-0.2-0.4-0.4V7.9z"/>
	<path class="st3" d="M210.5,7.9c0-0.2,0.2-0.4,0.4-0.4h9.3c0.3,0,0.4,0.2,0.4,0.4v1.9c0,0.2-0.2,0.4-0.4,0.4h-6.7v3.7h5.6
		c0.2,0,0.4,0.2,0.4,0.4v1.9c0,0.2-0.2,0.4-0.4,0.4h-5.6v4h6.7c0.3,0,0.4,0.2,0.4,0.4v1.9c0,0.2-0.2,0.4-0.4,0.4h-9.3
		c-0.2,0-0.4-0.2-0.4-0.4V7.9z"/>
	<path class="st3" d="M224.3,7.9c0-0.2,0.2-0.4,0.4-0.4h2.2c0.2,0,0.4,0.2,0.4,0.4v9.3c0,1.9,1.3,3.5,3.3,3.5c2,0,3.3-1.5,3.3-3.4
		V7.9c0-0.2,0.2-0.4,0.4-0.4h2.2c0.2,0,0.4,0.2,0.4,0.4v9.5c0,3.5-2.8,6.3-6.3,6.3c-3.6,0-6.3-2.8-6.3-6.3V7.9z"/>
	<path class="st3" d="M240.2,8c-0.1-0.3,0.1-0.5,0.4-0.5h2.1c0.2,0,0.4,0.2,0.4,0.3l2.4,9.1h0.1l3.6-9.4c0-0.1,0.2-0.3,0.4-0.3h0.4
		c0.2,0,0.3,0.1,0.4,0.3l3.6,9.4h0.1l2.3-9.1c0-0.2,0.2-0.3,0.4-0.3h2.1c0.3,0,0.5,0.2,0.4,0.5L255,23.3c0,0.2-0.2,0.3-0.4,0.3h-0.4
		c-0.2,0-0.3-0.1-0.4-0.3L249.8,13h-0.1l-4,10.3c-0.1,0.1-0.2,0.3-0.4,0.3h-0.4c-0.2,0-0.4-0.1-0.4-0.3L240.2,8z"/>
	<polygon class="st3" points="18.6,16.4 18.6,16.4 50.8,29.7 50.8,7.2 25.8,1.7 0.8,7 0.8,23.8 	"/>
	<polygon class="st4" points="18.6,25.6 0.8,33 0.8,46.4 28,51.7 50.8,46.5 50.8,38.9 	"/>
	<g>
		<path class="st4" d="M83.4,34.6c0,0.3,0,0.6-0.1,0.9s-0.2,0.6-0.4,0.8s-0.4,0.5-0.7,0.7s-0.6,0.3-1,0.4v0.1c0.4,0.1,0.7,0.2,1,0.3
			c0.3,0.1,0.6,0.3,0.8,0.6s0.4,0.5,0.6,0.9c0.1,0.4,0.2,0.8,0.2,1.2c0,0.6-0.1,1.2-0.4,1.6c-0.3,0.5-0.6,0.8-1.1,1.1
			c-0.5,0.3-1,0.5-1.5,0.6s-1.2,0.2-1.8,0.2c-0.2,0-0.5,0-0.8,0c-0.3,0-0.6,0-1,0c-0.4,0-0.7,0-1.1-0.1s-0.7-0.1-1-0.2V31.8
			c0.2,0,0.5-0.1,0.8-0.1c0.3,0,0.6-0.1,0.9-0.1c0.3,0,0.7,0,1-0.1c0.3,0,0.7,0,1,0c0.6,0,1.1,0,1.7,0.1c0.5,0.1,1,0.2,1.5,0.5
			s0.8,0.5,1,0.9C83.3,33.5,83.4,34,83.4,34.6z M78.2,36.9c0.2,0,0.4,0,0.6,0c0.2,0,0.4,0,0.5-0.1c0.4-0.1,0.8-0.3,1.1-0.6
			c0.3-0.3,0.5-0.6,0.5-1.1c0-0.3-0.1-0.5-0.2-0.7s-0.3-0.4-0.5-0.5c-0.2-0.1-0.4-0.2-0.7-0.2s-0.5-0.1-0.8-0.1c-0.3,0-0.6,0-0.8,0
			c-0.3,0-0.5,0-0.6,0.1v3.2H78.2z M79,42.2c0.3,0,0.6,0,0.9-0.1c0.3-0.1,0.5-0.2,0.7-0.3s0.4-0.3,0.5-0.5c0.1-0.2,0.2-0.5,0.2-0.8
			c0-0.4-0.1-0.7-0.2-0.9c-0.2-0.2-0.4-0.4-0.6-0.5c-0.2-0.1-0.5-0.2-0.8-0.2s-0.6-0.1-0.9-0.1h-1.3v3.4c0.1,0,0.2,0,0.3,0.1
			c0.1,0,0.3,0,0.4,0c0.1,0,0.3,0,0.5,0S78.9,42.2,79,42.2z"/>
		<path class="st4" d="M85.4,37.9c0-2,0.5-3.6,1.4-4.7s2.2-1.7,3.9-1.7c0.9,0,1.6,0.2,2.3,0.5c0.7,0.3,1.2,0.7,1.6,1.3
			c0.4,0.6,0.8,1.2,1,2s0.3,1.7,0.3,2.6c0,2-0.5,3.6-1.4,4.7s-2.2,1.7-3.9,1.7c-0.9,0-1.7-0.2-2.3-0.5c-0.7-0.3-1.2-0.7-1.6-1.3
			s-0.7-1.2-1-2C85.5,39.7,85.4,38.8,85.4,37.9z M87.9,37.9c0,0.6,0.1,1.2,0.2,1.7c0.1,0.5,0.3,1,0.5,1.3s0.5,0.7,0.8,0.9
			s0.7,0.3,1.2,0.3c0.9,0,1.5-0.3,2-1s0.7-1.7,0.7-3.2c0-0.6,0-1.2-0.1-1.7c-0.1-0.5-0.3-1-0.5-1.4c-0.2-0.4-0.5-0.7-0.8-0.9
			c-0.3-0.2-0.8-0.3-1.2-0.3c-0.9,0-1.5,0.3-2,1C88.2,35.3,87.9,36.4,87.9,37.9z"/>
		<path class="st4" d="M104.5,31.7h2.3v7.9c0,0.8-0.1,1.5-0.3,2.1c-0.2,0.6-0.5,1-0.9,1.4c-0.4,0.4-0.8,0.6-1.4,0.8
			c-0.5,0.2-1.1,0.3-1.8,0.3c-3.1,0-4.7-1.4-4.7-4.3v-8.2h2.4v7.8c0,0.5,0,0.9,0.1,1.2c0.1,0.3,0.2,0.6,0.4,0.8
			c0.2,0.2,0.4,0.4,0.7,0.4c0.3,0.1,0.6,0.1,1,0.1c0.7,0,1.3-0.2,1.6-0.6c0.3-0.4,0.5-1.1,0.5-2V31.7z"/>
		<path class="st4" d="M112.2,38.6l0.2,2.2h0.1l0.2-2.2l2.1-6.8h1.6l2.1,6.9l0.2,2.2h0.1l0.3-2.2l1.5-6.8h2.4l-3.4,12.4h-1.6
			l-2.2-6.8l-0.3-1.9h-0.1l-0.3,1.9l-2.2,6.8h-1.7L108,31.7h2.6L112.2,38.6z"/>
	</g>
</g>
</svg>
